<?xml version="1.0" standalone="no"?>
<!DOCTYPE svg PUBLIC "-//W3C//DTD SVG 1.1//EN" "http://www.w3.org/Graphics/SVG/1.1/DTD/svg11.dtd" >
<svg xmlns="http://www.w3.org/2000/svg" xmlns:xlink="http://www.w3.org/1999/xlink" version="1.1">
<metadata>
Created by FontForge 20170731 at Fri Feb 10 01:43:58 2012
 By Aleksey,,,
Copyright (c) 2011, Pablo Impallari (www.impallari.com|impallari@gmail.com),Copyright (c) 2011, Igino Marini. (www.ikern.com|mail@iginomarini.com),Copyright (c) 2011, Brenda Gallo. (gbrenda1987@gmail.com),with Reserved Font Name Quattrocento Sans.
</metadata>
<defs>
<font id="QuattrocentoSans-Italic" horiz-adv-x="575" >
  <font-face 
    font-family="Quattrocento Sans"
    font-weight="400"
    font-style="italic"
    font-stretch="normal"
    units-per-em="1000"
    panose-1="2 11 5 2 5 0 0 2 0 3"
    ascent="800"
    descent="-200"
    x-height="460"
    cap-height="660"
    bbox="-143 -260 1150 848"
    underline-thickness="48"
    underline-position="-143"
    unicode-range="U+000D-FB02"
  />
<missing-glyph horiz-adv-x="266" 
d="M115 231q0 15 7 30t19 26t27 18t31 7q23 0 39 -17.5t16 -41.5q0 -16 -7.5 -30t-19.5 -24.5t-27 -16.5t-30 -6q-25 0 -40 16t-15 39z" />
    <glyph glyph-name="fi" unicode="fi" horiz-adv-x="523" 
d="M132 413h-77l8 37l79 9q20 97 45 152.5t53 84.5q30 32 58 40.5t54 8.5q50 0 87 -16.5t60 -33.5l-47 -60q-39 28 -67 43t-57 15q-22 0 -37 -9.5t-26 -30.5t-20.5 -54t-19.5 -79l-13 -60h108l-10 -47h-108l-144 -673h-70zM389 0h-70l98 460h70z" />
    <glyph glyph-name="fl" unicode="fl" horiz-adv-x="536" 
d="M132 413h-77l8 37l79 9q11 54 25 93t28.5 67t29.5 46.5t28 30.5q31 29 59 39t51 10q10 0 26 -0.5t36 -3t42.5 -8t45.5 -14.5l39 21l-157 -740h-70l141 665q-25 14 -60.5 21t-72.5 7q-16 0 -31 -9t-28.5 -29t-26 -53t-22.5 -82l-13 -60h108l-10 -47h-108l-143 -673h-70z
" />
    <glyph glyph-name=".notdef" horiz-adv-x="266" 
d="M115 231q0 15 7 30t19 26t27 18t31 7q23 0 39 -17.5t16 -41.5q0 -16 -7.5 -30t-19.5 -24.5t-27 -16.5t-30 -6q-25 0 -40 16t-15 39z" />
    <glyph glyph-name=".null" horiz-adv-x="0" 
 />
    <glyph glyph-name="nonmarkingreturn" unicode="&#xd;" horiz-adv-x="245" 
 />
    <glyph glyph-name="NULL" horiz-adv-x="0" 
 />
    <glyph glyph-name="NULL" horiz-adv-x="0" 
 />
    <glyph glyph-name="space" unicode=" " horiz-adv-x="245" 
 />
    <glyph glyph-name="exclam" unicode="!" horiz-adv-x="259" 
d="M31 27q0 21 18.5 38.5t40.5 17.5q16 0 26.5 -12t10.5 -29q0 -11 -5.5 -20.5t-13.5 -16.5t-18 -11.5t-20 -4.5q-17 0 -28 11t-11 27zM79 150l89 532h97l-139 -532h-47z" />
    <glyph glyph-name="quotedbl" unicode="&#x22;" horiz-adv-x="333" 
d="M129 516l25 216h81l-70 -216h-36zM266 516l25 216h81l-70 -216h-36z" />
    <glyph glyph-name="numbersign" unicode="#" horiz-adv-x="616" 
d="M493 446h122l-21 -52h-123l-50 -119h127l-21 -53h-129l-94 -222h-64l94 222h-126l-94 -222h-64l94 222h-116l21 53h118l50 119h-122l21 52h123l89 208h64l-89 -208h126l89 208h64zM231 275h126l50 119h-126z" />
    <glyph glyph-name="dollar" unicode="$" horiz-adv-x="531" 
d="M383 664q44 -3 81 -13t63 -24l-37 -77q-20 22 -53.5 33t-67.5 14l-46 -219q28 -11 55.5 -24t48.5 -32t34 -45t13 -63q0 -55 -19.5 -95.5t-52 -67.5t-74.5 -42t-88 -19l-18 -86h-60l18 85q-58 2 -105 17.5t-80 36.5l37 73q15 -12 30.5 -23t34.5 -19.5t42.5 -13.5t54.5 -6
l55 259q-33 12 -60 26t-46 32t-29.5 41t-10.5 53q0 48 17 84t47 60.5t70 38t86 16.5l19 86h60zM392 183q0 21 -7 37t-19 29t-28 23.5t-34 18.5l-50 -235q75 9 106.5 44.5t31.5 82.5zM179 484q0 -31 21.5 -49t66.5 -36l42 199q-60 -5 -95 -33.5t-35 -80.5z" />
    <glyph glyph-name="percent" unicode="%" horiz-adv-x="822" 
d="M271 665q28 0 49.5 -11t36 -30t21.5 -45t7 -55q0 -42 -14.5 -83t-40.5 -74t-62.5 -53t-79.5 -20q-28 0 -49 10.5t-34.5 29.5t-20 43.5t-6.5 53.5q0 46 14.5 88t40.5 74.5t61 52t77 19.5zM199 339q34 0 58.5 17t40.5 43.5t24 59.5t8 65q0 43 -17 69.5t-53 26.5
q-37 0 -61.5 -19t-38.5 -47t-20 -61t-6 -61q0 -93 65 -93zM148 -24h-65l615 715h65zM655 364q28 0 49.5 -11t36 -30t21.5 -45t7 -55q0 -42 -14.5 -83t-40.5 -74t-62.5 -53t-79.5 -20q-28 0 -49 10.5t-34.5 29.5t-20 43.5t-6.5 53.5q0 46 14.5 88t40.5 74.5t61 52t77 19.5z
M583 38q34 0 58.5 17t40.5 43.5t24 59.5t8 65q0 43 -17 69.5t-53 26.5q-37 0 -61.5 -19t-38.5 -47t-20 -61t-6 -61q0 -93 65 -93z" />
    <glyph glyph-name="ampersand" unicode="&#x26;" horiz-adv-x="697" 
d="M700 427l-13 -62l-137 -12q6 -18 9 -38.5t3 -39.5q0 -44 -16.5 -86.5t-46.5 -78.5l83 -110h-84l-48 62q-43 -34 -98 -54t-120 -20q-50 0 -86.5 13t-60.5 34.5t-36 50t-12 60.5q0 30 12 63t35 63t56.5 56t75.5 43q-34 53 -34 112q0 44 15.5 78t41 57t58.5 35t69 12
q34 0 67.5 -11.5t62.5 -32.5l-36 -71q-17 22 -46.5 36t-59.5 14q-20 0 -38.5 -6.5t-32.5 -20.5t-22.5 -35.5t-8.5 -51.5q0 -49 30 -88l179 -239q36 53 36 112q0 19 -4 38.5t-11 37.5l-51 -4l10 47zM255 54q48 0 88 14.5t72 40.5l-165 215q-29 -9 -53.5 -25t-42.5 -37.5
t-28 -47t-10 -52.5q0 -52 38 -80t101 -28z" />
    <glyph glyph-name="quotesingle" unicode="'" horiz-adv-x="196" 
d="M129 516l25 216h81l-70 -216h-36z" />
    <glyph glyph-name="parenleft" unicode="(" horiz-adv-x="311" 
d="M395 758q-51 -46 -98.5 -96t-83.5 -115t-58 -151t-22 -204q0 -29 3.5 -66t12.5 -76.5t24 -79t37 -74.5l-39 -13q-60 66 -90.5 157.5t-30.5 187.5q0 79 22 153.5t62.5 143t97.5 130.5t127 116z" />
    <glyph glyph-name="parenright" unicode=")" horiz-adv-x="310" 
d="M163 771q29 -33 51.5 -73t37.5 -85t23 -92.5t8 -95.5q0 -78 -22 -153t-62.5 -143.5t-97.5 -130.5t-127 -115l-34 13q65 61 114 123t81.5 130.5t49 146.5t16.5 171q0 81 -19 156t-60 135z" />
    <glyph glyph-name="asterisk" unicode="*" horiz-adv-x="438" 
d="M297 568l125 81l21 -58l-135 -54l112 -53l-44 -57l-92 79l-13 -132h-65l42 132l-125 -79l-20 57l134 53l-111 54l45 58l90 -81l14 134h66z" />
    <glyph glyph-name="plus" unicode="+" horiz-adv-x="493" 
d="M270 265h172l-11 -52h-172l-37 -172h-52l37 172h-171l11 52h171l34 162h52z" />
    <glyph glyph-name="comma" unicode="," horiz-adv-x="240" 
d="M-6 -78l55 73h-25l19 90h79l-23 -105l-89 -77z" />
    <glyph glyph-name="hyphen" unicode="-" horiz-adv-x="486" 
d="M410 265l-11 -52h-338l11 52h338z" />
    <glyph glyph-name="period" unicode="." horiz-adv-x="232" 
d="M22 27q0 21 18 38.5t40 17.5q17 0 27.5 -12t10.5 -29q0 -11 -5.5 -20.5t-13.5 -16.5t-18.5 -11.5t-20.5 -4.5q-17 0 -27.5 11t-10.5 27z" />
    <glyph glyph-name="slash" unicode="/" horiz-adv-x="429" 
d="M44 -57h-75l439 759h75z" />
    <glyph glyph-name="zero" unicode="0" horiz-adv-x="655" 
d="M411 665q52 0 90.5 -20.5t64 -55t38.5 -81t13 -98.5q0 -77 -26 -152.5t-73 -135.5t-112.5 -97t-144.5 -37q-51 0 -89 19.5t-62.5 53.5t-36.5 79.5t-12 96.5q0 83 26 160t72.5 136.5t111 95.5t140.5 36zM277 54q65 0 113.5 32t81 83t48.5 115t16 128q0 42 -8.5 76t-26 59
t-44.5 38.5t-63 13.5q-69 0 -117 -33.5t-77.5 -86t-42.5 -116.5t-13 -125q0 -90 34 -137t99 -47z" />
    <glyph glyph-name="one" unicode="1" horiz-adv-x="314" 
d="M157 0h-75l112 526l-106 -46l-7 70l216 110z" />
    <glyph glyph-name="two" unicode="2" horiz-adv-x="507" 
d="M129 616q43 21 99.5 35t105.5 14q77 0 120.5 -37t43.5 -97q0 -40 -18.5 -78.5t-49.5 -76.5t-72 -76t-86.5 -76t-92.5 -76.5t-90 -77.5h320l-15 -70h-405l15 70q41 42 87.5 81.5t92 77.5t87.5 75t73.5 73.5t50.5 72.5t19 73q0 31 -21.5 53.5t-74.5 22.5q-22 0 -47.5 -3.5
t-50.5 -10.5t-48 -16t-39 -19z" />
    <glyph glyph-name="three" unicode="3" horiz-adv-x="535" 
d="M149 616q19 10 42.5 19t48 16t48.5 10.5t44 3.5q77 0 121 -35t44 -101q0 -30 -10.5 -56t-28.5 -47t-41 -38t-48 -29q45 -17 70.5 -49.5t25.5 -82.5q0 -46 -19 -89t-56.5 -76.5t-92.5 -53.5t-126 -20q-58 0 -104 16.5t-78 45.5l34 67q29 -29 68.5 -46t90.5 -17
q97 0 149 47t52 126q0 45 -34 71.5t-112 26.5h-27l13 57h31q36 0 65.5 10.5t50.5 29.5t32.5 45t11.5 58q0 33 -20.5 53.5t-69.5 20.5q-23 0 -47 -4t-46.5 -10.5t-42.5 -15.5t-35 -19z" />
    <glyph glyph-name="four" unicode="4" horiz-adv-x="508" 
d="M446 210h-69l-45 -210h-75l45 210h-284l15 70l360 380h80l-81 -380h69zM317 280l57 271l-256 -271h199z" />
    <glyph glyph-name="five" unicode="5" horiz-adv-x="542" 
d="M88 317l111 348h339l-15 -70h-276l-71 -213q32 7 67 11.5t64 4.5q78 0 125.5 -39.5t47.5 -112.5q0 -48 -19.5 -94.5t-57.5 -82.5t-93 -58.5t-127 -22.5q-58 0 -104 16.5t-78 45.5l36 70q31 -29 68 -47.5t93 -18.5q91 0 144 47t53 130q0 43 -30 69.5t-104 26.5
q-35 0 -73.5 -6t-73.5 -19z" />
    <glyph glyph-name="six" unicode="6" horiz-adv-x="559" 
d="M152 328q35 43 84.5 58t97.5 15q49 0 80.5 -15.5t50 -39t25.5 -51.5t7 -53q0 -41 -16 -86t-48.5 -82.5t-82 -61.5t-116.5 -24q-47 0 -80 15t-54 42t-31 65t-10 85q0 35 6 84t21 101t40 103t63 91t90 65t121 25q16 0 36.5 -2t41.5 -7.5t39.5 -15t30.5 -23.5l-31 -66
q-28 28 -64 38.5t-66 10.5q-54 0 -96 -25.5t-71.5 -65t-46.5 -87.5t-21 -93zM418 236q0 21 -5.5 39.5t-17.5 33t-31.5 23t-47.5 8.5q-46 0 -80 -15t-56.5 -40t-33.5 -57.5t-11 -67.5q0 -51 28.5 -81t83.5 -30q37 0 68.5 13.5t54.5 38.5t35.5 59t12.5 76z" />
    <glyph glyph-name="seven" unicode="7" horiz-adv-x="458" 
d="M20 0q2 9 3.5 19.5t3.5 19.5q9 42 31.5 90t54 98t70.5 100.5t80.5 98t83.5 91t81 78.5h-322l15 70h405l-15 -70q-61 -50 -126 -121.5t-121 -149.5t-96.5 -153t-52.5 -131l-8 -40h-87z" />
    <glyph glyph-name="eight" unicode="8" horiz-adv-x="560" 
d="M399 362q45 -11 67 -46.5t22 -86.5q0 -47 -16.5 -90.5t-50.5 -77t-84.5 -53.5t-118.5 -20q-50 0 -85 13t-56.5 34.5t-31.5 50t-10 60.5q0 79 44.5 136.5t119.5 78.5l1 4q-27 11 -45 39t-18 70q0 41 16 76t45.5 60.5t71 40t93.5 14.5q76 0 117.5 -35t41.5 -93
q0 -31 -10 -58t-27 -49t-39 -38.5t-46 -25.5zM403 215q0 22 -6 42.5t-19.5 36t-35 25t-51.5 9.5q-46 0 -79 -16.5t-54.5 -42.5t-31.5 -57.5t-10 -61.5q0 -48 29 -74.5t86 -26.5q82 0 127 45t45 121zM438 525q0 32 -20 54.5t-69 22.5q-37 0 -62 -10.5t-40.5 -28.5t-22.5 -41
t-7 -47q0 -38 21.5 -62.5t64.5 -24.5q31 0 56 11t42.5 29.5t27 43.5t9.5 53z" />
    <glyph glyph-name="nine" unicode="9" horiz-adv-x="560" 
d="M427 325q-16 -22 -37 -36t-45 -22.5t-48.5 -12t-48.5 -3.5q-49 0 -80.5 15.5t-50 39t-25.5 51.5t-7 53q0 41 16 86t48.5 82.5t81.5 61.5t116 24q94 0 135 -56.5t41 -150.5q0 -35 -6 -84t-21 -101t-40 -103t-63 -91t-90 -65t-121 -25q-16 0 -36.5 2t-41.5 7.5t-39.5 15
t-30.5 23.5l31 66q28 -28 64 -38.5t66 -10.5q52 0 91 21.5t67 56t45.5 78t26.5 86.5q2 8 3 14.5t2 14.5zM335 603q-38 0 -69.5 -16.5t-54 -43.5t-35 -62.5t-12.5 -72.5q0 -41 22.5 -68.5t79.5 -27.5q46 0 79.5 15t56 40t33.5 57.5t11 67.5q0 51 -28 81t-83 30z" />
    <glyph glyph-name="colon" unicode=":" horiz-adv-x="244" 
d="M23 27q0 21 17.5 38.5t40.5 17.5q17 0 27.5 -12t10.5 -29q0 -11 -5.5 -20.5t-13.5 -16.5t-18.5 -11.5t-20.5 -4.5q-17 0 -27.5 11t-10.5 27zM103 400q0 21 17.5 38t39.5 17q17 0 28 -11.5t11 -28.5q0 -22 -19 -38t-40 -16q-17 0 -27 11t-10 28z" />
    <glyph glyph-name="semicolon" unicode=";" horiz-adv-x="253" 
d="M109 400q0 21 17.5 38t39.5 17q17 0 28 -11.5t11 -28.5q0 -22 -19 -38t-40 -16q-17 0 -27 11t-10 28zM-1 -78l55 73h-25l19 90h79l-23 -105l-89 -77z" />
    <glyph glyph-name="less" unicode="&#x3c;" horiz-adv-x="411" 
d="M139 238l170 -133l-32 -64l-244 197l1 5l326 194l5 -63l-225 -131z" />
    <glyph glyph-name="equal" unicode="=" horiz-adv-x="491" 
d="M396 189l-11 -52h-338l11 52h338zM428 341l-11 -52h-338l11 52h338z" />
    <glyph glyph-name="greater" unicode="&#x3e;" horiz-adv-x="409" 
d="M257 243l-169 131l32 63l243 -194l-1 -5l-328 -197l-4 64l226 133z" />
    <glyph glyph-name="question" unicode="?" horiz-adv-x="417" 
d="M87 28q0 23 17.5 39t39.5 16q17 0 28 -11.5t11 -28.5q0 -11 -5.5 -20.5t-14 -17t-19 -12t-20.5 -4.5q-17 0 -27 11.5t-10 27.5zM118 637q32 21 75 35t81 14q69 0 106.5 -36t37.5 -94q0 -36 -14 -66.5t-36 -58.5t-48.5 -56.5t-52 -61.5t-47 -72.5t-32.5 -89.5h-64
q12 55 32.5 96t45 73.5t50 59t46 51.5t33.5 52t13 61q0 32 -20.5 54.5t-64.5 22.5q-16 0 -34.5 -4t-37 -10.5t-35.5 -16t-30 -19.5z" />
    <glyph glyph-name="at" unicode="@" horiz-adv-x="726" 
d="M458 350q-5 6 -24 6q-38 0 -68.5 -22.5t-52 -54t-33 -66t-11.5 -58.5q0 -39 22 -39q13 0 30 10.5t33.5 27t31 36.5t22.5 39zM516 -23q-12 -9 -36.5 -22.5t-57 -26t-71.5 -21t-80 -8.5q-52 0 -96 16t-76 46t-50 72.5t-18 94.5q0 39 13 85.5t38.5 93.5t63 90.5t86 77
t108 53.5t128.5 20q60 0 102.5 -17.5t70 -46t40 -65t12.5 -75.5q0 -51 -20.5 -99.5t-56 -86.5t-82.5 -61t-99 -23q-36 0 -48.5 11.5t-12.5 30.5q0 8 1 15.5t3 15.5q-24 -34 -54 -54t-56 -20q-25 0 -44 22.5t-19 66.5q0 50 23 92t58 72t76.5 46.5t79.5 16.5q24 0 51 -8
t40 -25q-28 -67 -43 -103.5t-22 -53.5t-8.5 -20l-1.5 -3q-6 -14 -9 -23.5t-3 -18.5q0 -19 24 -19q31 0 60 20.5t51.5 52.5t36 71.5t13.5 77.5q0 31 -9.5 60.5t-30.5 52.5t-54 37t-80 14q-54 0 -102.5 -16t-88.5 -44t-72 -65t-54.5 -78.5t-34 -85t-11.5 -84.5
q0 -47 15.5 -81.5t42 -56.5t62.5 -32.5t77 -10.5t78 8.5t67.5 21t53.5 26.5t36 24z" />
    <glyph glyph-name="A" unicode="A" horiz-adv-x="643" 
d="M595 0h-85l-50 222h-295l-135 -222h-80l404 660h91zM207 292h237l-63 284z" />
    <glyph glyph-name="B" unicode="B" horiz-adv-x="561" 
d="M182 660q34 2 76.5 3.5t78.5 1.5q77 0 121.5 -35t44.5 -101q0 -52 -25 -94t-76 -70q46 -17 71.5 -51.5t25.5 -85.5q0 -46 -19.5 -89.5t-57 -77t-92.5 -53.5t-126 -20q-49 0 -89.5 3.5t-72.5 8.5zM271 325q-22 0 -44 -0.5t-42 -1.5l-56 -266q37 -3 86 -3q97 0 149 47
t52 126q0 45 -33.5 71.5t-111.5 26.5zM329 599q-22 0 -44 -0.5t-42 -1.5l-45 -214q14 -1 29.5 -1h31.5q37 0 66.5 10.5t50.5 29.5t32.5 45t11.5 58q0 33 -20.5 53.5t-70.5 20.5z" />
    <glyph glyph-name="C" unicode="C" horiz-adv-x="643" 
d="M628 550q-27 21 -71 35t-104 14q-92 0 -152 -31t-95 -81t-49 -112t-14 -123q0 -97 48 -147.5t144 -50.5q63 0 119.5 18t94.5 44l6 -67q-45 -24 -105.5 -42.5t-131.5 -18.5q-68 0 -116.5 20.5t-80 56t-46.5 83t-15 100.5q0 81 28 156.5t81.5 133t130 92.5t173.5 35
q54 0 105.5 -11.5t86.5 -31.5z" />
    <glyph glyph-name="D" unicode="D" horiz-adv-x="708" 
d="M182 660q49 2 107 3.5t112 1.5q71 0 125.5 -20t87.5 -55q29 -32 42.5 -82t13.5 -103q0 -79 -26 -154t-77 -133.5t-126 -94t-173 -35.5q-71 0 -126 3.5t-100 8.5zM279 54q78 0 136 26t96.5 73t57.5 112t19 143q0 43 -10.5 78t-34 60t-60.5 39t-90 14q-40 0 -79 -0.5
t-71 -2.5l-113 -536q61 -6 149 -6z" />
    <glyph glyph-name="E" unicode="E" horiz-adv-x="522" 
d="M424 0h-382l140 660h362l-15 -70h-287l-43 -205h220l-15 -70h-220l-52 -245h307z" />
    <glyph glyph-name="F" unicode="F" horiz-adv-x="484" 
d="M393 315h-209l-67 -315h-75l140 660h357l-15 -70h-282l-43 -205h209z" />
    <glyph glyph-name="G" unicode="G" horiz-adv-x="674" 
d="M563 55q-51 -30 -112.5 -48.5t-132.5 -18.5q-68 0 -116.5 20.5t-80 56t-46.5 83t-15 100.5q0 81 28 156.5t81.5 133t130 92.5t173.5 35q58 0 110.5 -11.5t91.5 -31.5l-37 -72q-27 21 -74.5 35t-110.5 14q-92 0 -152 -31t-95 -81t-49 -112t-14 -123q0 -97 48 -147.5
t144 -50.5q44 0 84.5 9t75.5 23l39 186h75z" />
    <glyph glyph-name="H" unicode="H" horiz-adv-x="705" 
d="M196 375h356l61 285h75l-140 -660h-75l64 305h-356l-64 -305h-75l140 660h75z" />
    <glyph glyph-name="I" unicode="I" horiz-adv-x="274" 
d="M117 0h-75l140 660h75z" />
    <glyph glyph-name="J" unicode="J" horiz-adv-x="273" 
d="M138 101q-11 -53 -31.5 -99.5t-49.5 -81.5t-66 -55.5t-82 -20.5l-2 55q39 0 66 19t44.5 48.5t28 65.5t17.5 70l119 558h75z" />
    <glyph glyph-name="K" unicode="K" horiz-adv-x="596" 
d="M191 348q32 19 58.5 38t61.5 47q60 48 122.5 107.5t116.5 119.5h86q-62 -70 -146.5 -148t-183.5 -159l231 -353h-93l-203 306l-69 -45l-55 -261h-75l140 660h75z" />
    <glyph glyph-name="L" unicode="L" horiz-adv-x="481" 
d="M412 0h-370l140 660h75l-125 -590h295z" />
    <glyph glyph-name="M" unicode="M" horiz-adv-x="844" 
d="M387 94l344 566h96l-140 -660h-75l106 499l-308 -499h-90l-97 500l-106 -500h-75l140 660h101z" />
    <glyph glyph-name="N" unicode="N" horiz-adv-x="705" 
d="M231 540l-114 -540h-75l140 660h91l225 -541l115 541h75l-140 -660h-91z" />
    <glyph glyph-name="O" unicode="O" horiz-adv-x="762" 
d="M138 246q0 -90 51.5 -141t148.5 -51q78 0 136.5 31t97 80.5t57.5 112.5t19 127q0 43 -12.5 78.5t-38 61t-65 40t-93.5 14.5q-80 0 -137 -31t-93.5 -81t-53.5 -113.5t-17 -127.5zM465 665q66 0 114.5 -21t81 -57.5t48.5 -85t16 -103.5q0 -75 -28 -148t-81.5 -131.5
t-129.5 -94.5t-172 -36q-66 0 -114 20.5t-79 56t-46 83t-15 101.5q0 82 29 157t82.5 132.5t128 92t165.5 34.5z" />
    <glyph glyph-name="P" unicode="P" horiz-adv-x="532" 
d="M182 660h4q33 2 72 3.5t74 1.5q94 0 147.5 -43.5t53.5 -124.5q0 -48 -18 -93t-53 -79.5t-87 -55.5t-120 -21q-48 0 -85 3l-53 -251h-75zM324 599q-21 0 -41.5 -0.5t-39.5 -1.5l-59 -280q36 -3 82 -3q92 0 138.5 49.5t46.5 131.5q0 47 -29 75.5t-98 28.5z" />
    <glyph glyph-name="Q" unicode="Q" horiz-adv-x="764" 
d="M466 665q66 0 114.5 -21t81 -57.5t48.5 -85t16 -103.5q0 -73 -27 -144.5t-77 -129t-123 -94.5t-164 -41q34 -4 65 -16.5t62.5 -25.5t64 -23.5t70.5 -10.5q39 0 89 19l-33 -64q-20 -10 -40 -13t-37 -3q-42 0 -79 14t-71 30.5t-66.5 30.5t-65.5 14q-24 0 -60 -9t-72 -32
l-4 47q32 20 65 30t64 12q-59 4 -101.5 26.5t-70 57.5t-41 80t-13.5 96q0 82 29 157t82.5 132.5t128 92t165.5 34.5zM138 246q0 -90 51.5 -141t148.5 -51q78 0 136.5 31t97 80.5t57.5 112.5t19 127q0 43 -12.5 78.5t-38 61t-65 40t-93.5 14.5q-80 0 -137 -31t-93.5 -81
t-53.5 -113.5t-17 -127.5z" />
    <glyph glyph-name="R" unicode="R" horiz-adv-x="590" 
d="M182 660h4q33 2 72 3.5t74 1.5q95 0 150 -40t55 -115q0 -36 -12 -71t-36 -64t-60 -51t-83 -33l191 -291h-93l-187 282q-44 0 -80 3l-60 -285h-75zM324 599q-21 0 -41.5 -0.5t-39.5 -1.5l-52 -247q18 -2 38.5 -2h43.5q90 0 135.5 44t45.5 116q0 40 -29.5 65.5t-100.5 25.5
z" />
    <glyph glyph-name="S" unicode="S" horiz-adv-x="556" 
d="M187 484q0 -20 9 -34t26.5 -25.5t44.5 -22t63 -23.5q30 -11 59.5 -24t52 -32.5t36.5 -46t14 -64.5q0 -60 -24.5 -102.5t-64 -69.5t-90.5 -39.5t-104 -12.5q-65 0 -117.5 16t-88.5 39l37 73q16 -13 32.5 -24.5t37 -19.5t46.5 -13t61 -5q53 0 89.5 10t59.5 27.5t33.5 41
t10.5 49.5q0 28 -13 48t-34 35t-47 25.5t-51 19.5q-35 12 -63.5 26.5t-48.5 32.5t-31 41.5t-11 54.5q0 52 20 90t54.5 62.5t80.5 36t98 11.5q54 0 102 -11t79 -27l-37 -77q-13 14 -32.5 23.5t-41.5 15t-45 8t-43 2.5q-73 0 -116 -28.5t-43 -86.5z" />
    <glyph glyph-name="T" unicode="T" horiz-adv-x="530" 
d="M581 590h-211l-125 -590h-75l125 590h-211l15 70h497z" />
    <glyph glyph-name="U" unicode="U" horiz-adv-x="689" 
d="M164 256q-9 -41 -9 -72q0 -69 38 -99.5t107 -30.5q84 0 142 47t81 155l86 404h70l-93 -438q-11 -49 -35 -91.5t-61.5 -74t-88.5 -49.5t-115 -18q-58 0 -98 12.5t-65.5 34.5t-37 52.5t-11.5 66.5q0 30 8 67l93 438h75z" />
    <glyph glyph-name="V" unicode="V" horiz-adv-x="645" 
d="M73 660h85l129 -576l351 576h80l-402 -660h-95z" />
    <glyph glyph-name="W" unicode="W" horiz-adv-x="1082" 
d="M596 546l-302 -546h-95l-120 660h85l102 -565l313 565h85l86 -563l320 563h80l-375 -660h-95z" />
    <glyph glyph-name="X" unicode="X" horiz-adv-x="646" 
d="M324 285l-280 -285h-86l334 341l-179 319h89l150 -267l262 267h86l-317 -323l190 -337h-89z" />
    <glyph glyph-name="Y" unicode="Y" horiz-adv-x="565" 
d="M68 660h89l142 -317l269 317h87l-338 -389l-57 -271h-75l56 267z" />
    <glyph glyph-name="Z" unicode="Z" horiz-adv-x="552" 
d="M453 0h-468l15 70l478 520h-353l15 70h438l-15 -70l-478 -520h383z" />
    <glyph glyph-name="bracketleft" unicode="[" horiz-adv-x="285" 
d="M172 -95h-160l179 844h160l-9 -42h-95l-161 -760h95z" />
    <glyph glyph-name="backslash" unicode="\" horiz-adv-x="422" 
d="M126 702h73l117 -759h-73z" />
    <glyph glyph-name="bracketright" unicode="]" horiz-adv-x="285" 
d="M136 749h160l-179 -844h-160l9 42h95l161 760h-95z" />
    <glyph glyph-name="asciicircum" unicode="^" horiz-adv-x="348" 
d="M322 673l88 -99l2 -7l-10 -19l-8 -3l-91 61l-117 -61l-6 3l-2 19l4 7l132 99h8z" />
    <glyph glyph-name="underscore" unicode="_" horiz-adv-x="481" 
d="M407 0l-11 -52h-433l11 52h433z" />
    <glyph glyph-name="grave" unicode="`" horiz-adv-x="219" 
d="M322 549l-185 77q-1 2 -1 5.5v5.5q0 17 11.5 29.5t31.5 13.5l160 -101l1 -7l-10 -20z" />
    <glyph glyph-name="a" unicode="a" 
d="M537 460l-97 -460h-55l10 82h-4q-32 -37 -84 -65.5t-116 -28.5q-41 0 -71 14.5t-49.5 39.5t-29 58.5t-9.5 70.5q0 57 18.5 111.5t54 97t86 69t114.5 26.5q67 0 104 -29t41 -72l32 86h55zM211 47q48 0 100.5 26t90.5 75l31 147q-6 57 -41.5 89t-88.5 32q-42 0 -78.5 -19
t-62.5 -51t-41 -76t-15 -93q0 -25 5.5 -48.5t18 -41.5t32.5 -29t49 -11z" />
    <glyph glyph-name="b" unicode="b" 
d="M263 -12q-64 0 -103.5 28.5t-56.5 65.5h-4l-25 -82h-55l157 740h70l-78 -366q23 43 73 72t115 29q43 0 75 -15t52.5 -40.5t30.5 -60t10 -73.5q0 -54 -17.5 -107.5t-51 -95.5t-82 -68.5t-110.5 -26.5zM268 47q49 0 83 22.5t56 57t32 74t10 74.5q0 63 -29.5 102t-86.5 39
q-53 0 -102 -32t-79 -89l-32 -147q19 -48 59.5 -74.5t88.5 -26.5z" />
    <glyph glyph-name="c" unicode="c" horiz-adv-x="500" 
d="M460 376q-19 17 -59 30.5t-83 13.5q-53 0 -92 -20t-64.5 -52.5t-38 -72.5t-12.5 -80q0 -31 8 -58.5t24.5 -48.5t41.5 -33t60 -12q40 0 86 17t80 43v-65q-32 -18 -84 -34t-107 -16q-48 0 -83 15t-58 41.5t-34 61.5t-11 74q0 54 18 107t55 94.5t93 67.5t131 26
q48 0 91.5 -11t67.5 -29z" />
    <glyph glyph-name="d" unicode="d" horiz-adv-x="576" 
d="M192 -12q-41 0 -71 14.5t-49.5 39.5t-29 58.5t-9.5 70.5q0 57 18.5 111.5t54 97t86 69t114.5 26.5q67 0 104 -29t41 -72l77 366h70l-157 -740h-55l10 82h-4q-32 -37 -84 -65.5t-116 -28.5zM212 47q48 0 100.5 26t90.5 75l31 147q-6 57 -41.5 89t-88.5 32q-42 0 -78.5 -19
t-62.5 -51t-41 -76t-15 -93q0 -25 5.5 -48.5t18 -41.5t32.5 -29t49 -11z" />
    <glyph glyph-name="e" unicode="e" horiz-adv-x="516" 
d="M328 475q75 0 114 -34.5t39 -97.5q0 -29 -9 -57.5t-18 -40.5h-340q-6 -29 -6 -57q0 -30 7.5 -56.5t23 -46.5t40 -32t57.5 -12q24 0 48.5 5.5t47 14t43 18.5t36.5 20v-57q-15 -8 -36 -17.5t-46 -17.5t-53.5 -13.5t-58.5 -5.5q-47 0 -81.5 15.5t-57.5 41.5t-34.5 61
t-11.5 74q0 56 21 109t60 94.5t93.5 66.5t121.5 25zM313 419q-69 0 -114 -35t-68 -86h277q2 5 4.5 11.5t2.5 24.5q0 42 -30 63.5t-72 21.5z" />
    <glyph glyph-name="f" unicode="f" horiz-adv-x="297" 
d="M132 413h-77l8 37l79 9q12 56 24 96t23.5 67.5t22.5 45t21 28.5q24 28 54.5 38.5t60.5 10.5q4 0 14 -0.5t22 -2t24.5 -5t23.5 -9.5l-30 -59q-3 0 -13 3.5t-23 8t-27.5 8.5t-26.5 4q-15 0 -26.5 -8.5t-21.5 -28t-19 -51.5t-19 -79l-14 -66h108l-10 -47h-108l-143 -673h-70
z" />
    <glyph glyph-name="g" unicode="g" 
d="M213 47q23 0 48 6.5t50 19.5t48.5 32t42.5 43l31 147q-6 57 -41.5 89t-89.5 32q-42 0 -78 -19t-62 -51.5t-41 -75t-15 -90.5q0 -27 5.5 -51t18 -42.5t33 -29t50.5 -10.5zM-2 -144q21 -12 46.5 -22t52 -16.5t52.5 -10.5t48 -4q75 0 117.5 44.5t62.5 145.5l18 89h-4
q-16 -18 -37.5 -35t-47 -30t-54.5 -21t-60 -8q-42 0 -72.5 14.5t-50 39.5t-28.5 58.5t-9 71.5q0 55 18.5 109.5t53.5 97.5t85.5 69.5t114.5 26.5q69 0 105.5 -29.5t40.5 -71.5l32 86h55l-99 -466q-15 -68 -36.5 -115t-51.5 -76t-70.5 -42t-93.5 -13q-107 0 -200 54z" />
    <glyph glyph-name="h" unicode="h" horiz-adv-x="543" 
d="M342 0l65 304q4 19 4 38q0 40 -21 57t-56 17q-25 0 -51 -8t-50 -23.5t-45 -38t-36 -51.5l-63 -295h-70l157 740h70l-78 -366q22 42 72 71.5t117 29.5q27 0 50.5 -6t40.5 -19t27 -34t10 -52q0 -23 -6 -51l-67 -313h-70z" />
    <glyph glyph-name="i" unicode="i" horiz-adv-x="224" 
d="M89 0h-70l98 460h70zM136 619q0 12 5.5 23t14 19.5t20 13.5t23.5 5q18 0 29.5 -13.5t11.5 -30.5q0 -24 -20 -41t-43 -17q-18 0 -29.5 12t-11.5 29z" />
    <glyph glyph-name="j" unicode="j" horiz-adv-x="225" 
d="M89 -3q-11 -51 -30.5 -97.5t-46 -81.5t-59.5 -55.5t-71 -20.5q-7 0 -13 0.5t-8 2.5l-4 58q6 -3 21 -3q34 0 58 19.5t40 48.5t26 64t17 66l98 462h70zM137 619q0 23 19 42t43 19q18 0 30 -13.5t12 -30.5q0 -24 -20 -41t-43 -17q-18 0 -29.5 12t-11.5 29z" />
    <glyph glyph-name="k" unicode="k" horiz-adv-x="471" 
d="M270 298l133 -298h-80l-112 250l-84 -69l-38 -181h-70l157 740h70l-101 -475l244 195h80z" />
    <glyph glyph-name="l" unicode="l" horiz-adv-x="236" 
d="M95 0h-70l157 740h70z" />
    <glyph glyph-name="m" unicode="m" horiz-adv-x="858" 
d="M338 0l65 304q4 19 4 37q0 41 -22 58t-57 17q-51 0 -98.5 -31.5t-77.5 -89.5l-63 -295h-70l98 460h55l-11 -86h4q22 42 70 71.5t114 29.5q60 0 94.5 -26.5t35.5 -74.5q29 40 76.5 70.5t115.5 30.5q26 0 49.5 -6t41 -19.5t28 -35t10.5 -52.5q0 -22 -6 -49l-67 -313h-70
l65 304q4 19 4 37q0 41 -22 58t-57 17q-51 0 -98.5 -31.5t-77.5 -89.5l-63 -295h-70z" />
    <glyph glyph-name="n" unicode="n" horiz-adv-x="543" 
d="M342 0l65 304q4 19 4 38q0 39 -21 56.5t-56 17.5q-25 0 -51 -8t-50 -23.5t-45 -38t-36 -51.5l-63 -295h-70l98 460h55l-11 -86h4q22 42 73.5 71.5t118.5 29.5q27 0 50.5 -6t40.5 -19t27 -34t10 -52q0 -23 -6 -51l-67 -313h-70z" />
    <glyph glyph-name="o" unicode="o" horiz-adv-x="564" 
d="M324 475q50 0 85.5 -15.5t58.5 -42t33.5 -61t10.5 -73.5q0 -56 -18 -109t-54 -94t-90 -66.5t-126 -25.5q-50 0 -86.5 15t-59.5 41.5t-34 61t-11 73.5q0 55 19 108t55.5 95t91 67.5t125.5 25.5zM235 41q50 0 87.5 20.5t63 53.5t38 74.5t12.5 83.5q0 30 -7 56.5t-22.5 46.5
t-39.5 31.5t-58 11.5q-50 0 -88 -20.5t-63 -53.5t-37.5 -74.5t-12.5 -83.5q0 -29 7 -55.5t22.5 -46.5t39.5 -32t58 -12z" />
    <glyph glyph-name="p" unicode="p" horiz-adv-x="576" 
d="M367 475q41 0 71 -14.5t49.5 -39.5t29 -58.5t9.5 -70.5q0 -57 -19 -111.5t-54 -97t-85.5 -69t-114.5 -26.5q-67 0 -104 29t-41 72l-74 -349h-70l153 720h55l-10 -86h4q16 18 37.5 36.5t47 32.5t55 23t61.5 9zM337 416q-48 0 -95.5 -26t-85.5 -75l-31 -147q3 -29 15.5 -51
t31 -38t42.5 -24t50 -8q43 0 77.5 19.5t58.5 52t37 74t13 85.5q0 28 -6.5 53t-20 44t-35 30t-51.5 11z" />
    <glyph glyph-name="q" unicode="q" horiz-adv-x="576" 
d="M291 475q33 0 59.5 -9t46.5 -23t33.5 -32t22.5 -37h4l26 86h55l-153 -720h-70l74 349q-22 -43 -71 -72t-116 -29q-44 0 -76 15t-52.5 40.5t-30.5 59.5t-10 73q0 55 18 108.5t51.5 96t81 68.5t107.5 26zM300 416q-47 0 -83 -21.5t-60.5 -55.5t-37 -76t-12.5 -82
q0 -57 26 -95.5t82 -38.5q26 0 53.5 8t53 24t47.5 38t37 51l31 147q-17 49 -53 75t-84 26z" />
    <glyph glyph-name="r" unicode="r" horiz-adv-x="356" 
d="M349 386q-14 9 -29 14.5t-30 5.5q-20 0 -40.5 -11t-39.5 -30t-35.5 -44t-28.5 -52l-57 -269h-70l98 460h55l-14 -101h4q12 23 28 44t36 37t43 25.5t50 9.5q19 0 38.5 -6.5t26.5 -16.5z" />
    <glyph glyph-name="s" unicode="s" horiz-adv-x="442" 
d="M245 419q-57 0 -82 -22t-25 -55q0 -17 13 -35t49 -26l68 -16q32 -8 52.5 -20t32.5 -26.5t16.5 -30.5t4.5 -30q0 -34 -16 -65t-44.5 -54t-68.5 -37t-88 -14q-53 0 -94.5 15.5t-64.5 34.5l32 65q29 -33 69.5 -48t75.5 -15q27 0 49.5 8t38.5 21.5t25 30.5t9 36q0 16 -11 35
t-45 28l-91 24q-50 13 -68.5 40t-18.5 56q0 34 15 62.5t41.5 49.5t63 32.5t79.5 11.5q19 0 40.5 -2.5t41.5 -8t38 -13t31 -17.5l-32 -60q-17 17 -53 31t-83 14z" />
    <glyph glyph-name="t" unicode="t" horiz-adv-x="310" 
d="M128 413h-77l8 37l81 10l45 139h53l-30 -139h108l-10 -47h-108l-68 -319q-3 -15 -3 -26q0 -16 7.5 -21t23.5 -5q23 0 43 7t35 17l3 -53q-18 -8 -47.5 -16t-62.5 -8q-45 0 -60 17.5t-15 42.5q0 10 2 21l4 22z" />
    <glyph glyph-name="u" unicode="u" horiz-adv-x="542" 
d="M183 460l-65 -304q-2 -11 -3.5 -20.5t-1.5 -17.5q0 -40 21.5 -55.5t55.5 -15.5q51 0 101.5 30t81.5 88l62 295h70l-98 -460h-55l11 86h-4q-22 -42 -73 -70t-118 -28q-27 0 -50.5 5.5t-40.5 18t-27 33.5t-10 51q0 22 6 51l67 313h70z" />
    <glyph glyph-name="v" unicode="v" horiz-adv-x="521" 
d="M243 0h-89l-111 460h76l95 -394l263 394h73z" />
    <glyph glyph-name="w" unicode="w" horiz-adv-x="823" 
d="M570 0h-95l-48 360l-209 -360h-95l-71 460h74l60 -392l228 392h74l52 -392l236 392h71z" />
    <glyph glyph-name="x" unicode="x" horiz-adv-x="514" 
d="M261 285l182 175h85l-237 -223l149 -237h-85l-117 187l-194 -187h-85l249 235l-141 225h85z" />
    <glyph glyph-name="y" unicode="y" horiz-adv-x="518" 
d="M238 -4q-21 -32 -51.5 -75.5t-68.5 -82.5t-82.5 -66.5t-93.5 -27.5q-8 0 -11.5 0.5t-7.5 2.5v66q3 -1 6.5 -2t13.5 -1q67 0 122.5 56t108.5 149l-135 445h83l101 -383l246 383h79z" />
    <glyph glyph-name="z" unicode="z" horiz-adv-x="415" 
d="M-4 60l315 341h-233l13 59h314l-13 -58l-317 -343h255l-13 -59h-334z" />
    <glyph glyph-name="braceleft" unicode="{" horiz-adv-x="283" 
d="M340 739q-23 -2 -38 -11t-24.5 -22.5t-15 -31.5t-9.5 -37l-28 -143q-6 -31 -16 -58.5t-25.5 -49.5t-37.5 -37.5t-51 -21.5q38 -9 52.5 -39.5t14.5 -70.5q0 -27 -7.5 -60.5t-16 -67t-16 -63.5t-7.5 -49q0 -23 10.5 -41t39.5 -21l-7 -21q-32 0 -53.5 7t-34.5 19t-18 29.5
t-5 38.5q0 24 8 57t17 68t17 68t8 56q0 12 -2.5 25t-8.5 24t-16.5 18t-26.5 8l6 30q27 1 45 15t29 34t16.5 42t9.5 40q13 61 21 114t25 91t50 60t97 22z" />
    <glyph glyph-name="bar" unicode="|" horiz-adv-x="242" 
d="M70 -114h-62l187 882h62z" />
    <glyph glyph-name="braceright" unicode="}" horiz-adv-x="282" 
d="M147 760q64 0 87.5 -26t23.5 -68q0 -24 -7.5 -57t-17 -68t-17 -67.5t-7.5 -55.5q0 -12 2.5 -25t8.5 -24t16 -18.5t26 -8.5l-6 -30q-27 -1 -44.5 -14.5t-28.5 -32.5t-16.5 -41t-9.5 -40q-13 -61 -21 -114t-25.5 -92t-51 -61.5t-96.5 -22.5l2 21q23 2 38 11t24.5 22.5
t15 31t9.5 37.5q10 48 18.5 98.5t24.5 94t42.5 75.5t72.5 42q-37 9 -52 39.5t-15 70.5q0 27 7.5 60.5t16 67t16 63.5t7.5 49q0 23 -10 41t-39 21z" />
    <glyph glyph-name="asciitilde" unicode="~" horiz-adv-x="495" 
d="M424 288q-1 -3 -8.5 -15.5t-21 -26t-32 -24.5t-42.5 -11q-11 0 -35.5 1.5t-53.5 3t-56.5 3t-43.5 1.5q-25 0 -36.5 -6.5t-23.5 -18.5l-12 7q1 7 10 20t23.5 26t33.5 22t40 9q13 0 34 -1.5t45.5 -3t50 -3t47.5 -1.5q17 0 35.5 4t35.5 22z" />
    <glyph glyph-name="uni00A0" unicode="&#xa0;" horiz-adv-x="245" 
 />
    <glyph glyph-name="exclamdown" unicode="&#xa1;" horiz-adv-x="240" 
d="M107 421q0 22 17.5 38t39.5 16q17 0 27.5 -11t10.5 -28q0 -11 -5.5 -20.5t-13.5 -17.5t-18.5 -12.5t-20.5 -4.5q-17 0 -27 12t-10 28zM152 314l-87 -532h-97l137 532h47z" />
    <glyph glyph-name="cent" unicode="&#xa2;" horiz-adv-x="508" 
d="M356 443q39 -3 73.5 -13t54.5 -25l-30 -59q-16 14 -45.5 25t-64.5 16l-73 -343q36 5 73.5 20.5t66.5 38.5v-65q-26 -15 -66 -29t-85 -19l-27 -127h-60l26 126q-43 3 -74.5 18.5t-52 40t-30.5 56t-10 67.5q0 48 16 95t49 85t82.5 63t117.5 30l28 133h60zM109 187
q0 -52 25 -91.5t78 -49.5l73 342q-45 -5 -78.5 -24.5t-55 -47.5t-32 -61.5t-10.5 -67.5z" />
    <glyph glyph-name="sterling" unicode="&#xa3;" horiz-adv-x="566" 
d="M134 51q31 -2 61.5 -8.5t60.5 -14t61 -13.5t64 -6q25 0 46 4.5t47 14.5l-35 -73q-28 -13 -45.5 -16.5t-39.5 -3.5q-36 0 -68.5 10.5t-64.5 22.5t-65.5 22.5t-72.5 10.5q-10 0 -38 -4.5t-61 -27.5l-4 47q43 17 75.5 42t55.5 55.5t37.5 65.5t22.5 71l3 15h-98l11 52h94
q5 46 7 90t10 79q10 49 34.5 83t56.5 55.5t68 31t69 9.5q46 0 85 -14.5t61 -34.5l-32 -66q-16 20 -51 34.5t-75 14.5q-30 0 -51.5 -8.5t-36.5 -23.5t-24 -35.5t-14 -43.5q-8 -34 -10 -77.5t-10 -93.5h139l-11 -52h-137q-13 -51 -44.5 -107.5t-81.5 -103.5z" />
    <glyph glyph-name="currency" unicode="&#xa4;" horiz-adv-x="580" 
d="M101 107q-11 19 -17 42.5t-6 46.5q0 16 2.5 32.5t10 35.5t22.5 40.5t41 46.5l-65 80l36 30l63 -79q37 23 68.5 33.5t65.5 10.5q35 0 62 -10.5t51 -33.5l98 78l24 -29l-96 -80q11 -21 16.5 -44t5.5 -46q0 -38 -15.5 -74t-57.5 -80l63 -80l-37 -30l-65 79
q-33 -22 -65.5 -33.5t-65.5 -11.5q-32 0 -59 11t-56 34l-96 -79l-23 30zM313 378q-35 0 -67.5 -14t-58.5 -37.5t-41.5 -55.5t-15.5 -68q0 -26 8.5 -48.5t24.5 -39t38 -26t49 -9.5q35 0 67.5 14t58 38t41 55.5t15.5 67.5q0 26 -8.5 48.5t-24 39t-37.5 26t-49 9.5z" />
    <glyph glyph-name="yen" unicode="&#xa5;" horiz-adv-x="654" 
d="M283 255l3 12l-18 41h-146l11 52h112l-133 300h89l142 -317l269 317h87l-261 -300h114l-11 -52h-148l-32 -37l-4 -16h173l-11 -52h-173l-42 -203h-75l43 203h-172l11 52h172z" />
    <glyph glyph-name="brokenbar" unicode="&#xa6;" horiz-adv-x="244" 
d="M153 274l-82 -388h-62l82 388h62zM114 380l82 388h62l-82 -388h-62z" />
    <glyph glyph-name="section" unicode="&#xa7;" horiz-adv-x="443" 
d="M142 0q18 0 35 6.5t30.5 18.5t21.5 28t8 36q0 24 -12.5 44t-32 39t-41.5 37.5t-41.5 39.5t-32 45t-12.5 55q0 22 7.5 44t20.5 42t30.5 37.5t37.5 29.5q-4 13 -4 33q0 43 18 76t45 54.5t59 32.5t60 11q29 0 58.5 -11t48.5 -27l-39 -67q-14 20 -37 31t-48 11
q-17 0 -34 -5.5t-30.5 -17t-22 -27.5t-8.5 -37q0 -24 12.5 -44.5t32 -39.5t41.5 -37.5t41.5 -39.5t32 -46t12.5 -55q0 -22 -7.5 -44t-20.5 -42.5t-30.5 -38t-37.5 -29.5q2 -8 3 -16t1 -16q0 -44 -18 -76.5t-45 -54t-59 -32.5t-60 -11q-29 0 -58.5 11t-48.5 27l39 67
q14 -20 37 -31t48 -11zM330 264q0 28 -17.5 51t-42.5 45.5t-51 46.5t-43 55q-21 -15 -31.5 -38t-10.5 -42q0 -29 17.5 -52t42.5 -45.5t51 -46.5t43 -54q20 15 31 37.5t11 42.5z" />
    <glyph glyph-name="dieresis" unicode="&#xa8;" horiz-adv-x="220" 
d="M133 623q0 20 16 36.5t36 16.5q14 0 23.5 -11t9.5 -27q0 -21 -16.5 -36t-35.5 -15q-15 0 -24 10t-9 26zM270 623q0 20 16 36.5t36 16.5q14 0 23.5 -11t9.5 -27q0 -21 -16.5 -36t-35.5 -15q-15 0 -24 10t-9 26z" />
    <glyph glyph-name="copyright" unicode="&#xa9;" horiz-adv-x="727" 
d="M444 654q55 0 100.5 -19.5t78 -53t50.5 -79t18 -97.5q0 -72 -32 -136t-84.5 -112.5t-121 -76.5t-141.5 -28q-53 0 -97.5 19.5t-76.5 53.5t-49.5 80t-17.5 98q0 70 31.5 134t84 112t119.5 76.5t138 28.5zM436 613q-62 0 -119 -24.5t-101.5 -66.5t-71 -97.5t-26.5 -117.5
q0 -45 14.5 -84.5t41.5 -68t64.5 -45t82.5 -16.5q64 0 122.5 24.5t103 66t71 97.5t26.5 119q0 45 -15 84t-42 67.5t-65.5 45t-85.5 16.5zM505 442q-13 12 -41.5 21t-57.5 9q-36 0 -61 -13t-40 -33.5t-22 -45.5t-7 -50q0 -39 20 -66t64 -27q29 0 61 11.5t56 30.5l-3 -56
q-23 -13 -59.5 -24t-74.5 -11q-66 0 -96.5 37.5t-30.5 91.5q0 37 11.5 74t36 65.5t63 46.5t92.5 18q33 0 64 -7.5t48 -20.5z" />
    <glyph glyph-name="ordfeminine" unicode="&#xaa;" horiz-adv-x="371" 
d="M276 369l5 49h-4q-19 -23 -53 -40t-69 -17q-32 0 -48 18t-16 45q0 40 20.5 64.5t49.5 37t61.5 16.5t55.5 4h27l1 7q1 5 1 15q0 52 -64 52q-26 0 -46.5 -6.5t-40.5 -17.5l-2 36q23 12 48 19t53 7q20 0 39 -4t33.5 -13t23 -23.5t8.5 -35.5q0 -11 -3 -24l-40 -189h-40z
M177 402q24 0 55.5 16.5t54.5 45.5l10 48h-5q-27 0 -54 -2t-49 -10t-35.5 -24t-13.5 -43q0 -31 37 -31z" />
    <glyph glyph-name="guillemotleft" unicode="&#xab;" horiz-adv-x="481" 
d="M112 238l106 -177h-80l-95 177l1 5l172 177h79l-182 -177zM274 238l106 -177h-80l-95 177l1 5l172 177h79l-182 -177z" />
    <glyph glyph-name="logicalnot" unicode="&#xac;" horiz-adv-x="634" 
d="M570 341l-48 -224h-53l37 172h-427l11 52h480z" />
    <glyph glyph-name="uni00AD" unicode="&#xad;" horiz-adv-x="488" 
d="M410 265l-13 -52h-336l13 52h336z" />
    <glyph glyph-name="registered" unicode="&#xae;" horiz-adv-x="727" 
d="M444 654q55 0 100.5 -19.5t78 -53t50.5 -79t18 -97.5q0 -72 -32 -136t-84.5 -112.5t-121 -76.5t-141.5 -28q-53 0 -97.5 19.5t-76.5 53.5t-49.5 80t-17.5 98q0 70 31.5 134t84 112t119.5 76.5t138 28.5zM436 613q-62 0 -119 -24.5t-101.5 -66.5t-71 -97.5t-26.5 -117.5
q0 -45 14.5 -84.5t41.5 -68t64.5 -45t82.5 -16.5q64 0 122.5 24.5t103 66t71 97.5t26.5 119q0 45 -15 84t-42 67.5t-65.5 45t-85.5 16.5zM318 530q17 1 42.5 1.5t43.5 0.5q48 0 77.5 -15t29.5 -57q0 -41 -28 -70.5t-73 -40.5l69 -148h-55l-68 145h-29l-31 -145h-48zM397 494
q-11 0 -20.5 -0.5t-18.5 -0.5l-23 -111q8 -1 18 -1h21q39 0 62.5 19.5t23.5 52.5q0 18 -14.5 29.5t-48.5 11.5z" />
    <glyph glyph-name="degree" unicode="&#xb0;" horiz-adv-x="356" 
d="M257 658q52 0 76.5 -27.5t24.5 -67.5q0 -26 -9.5 -50t-28.5 -42.5t-47 -30t-65 -11.5q-53 0 -76.5 27.5t-23.5 63.5q0 27 10.5 52t30 44t47 30.5t61.5 11.5zM216 467q46 0 68.5 26.5t22.5 63.5q0 26 -14 43t-46 17q-24 0 -41 -7.5t-28.5 -20.5t-16.5 -29t-5 -33
q0 -26 14.5 -43t45.5 -17z" />
    <glyph glyph-name="plusminus" unicode="&#xb1;" horiz-adv-x="482" 
d="M286 351h134l-12 -53h-134l-24 -115h-52l24 115h-133l12 53h133l22 104h52zM371 123l-11 -53h-319l11 53h319z" />
    <glyph glyph-name="twosuperior" unicode="&#xb2;" horiz-adv-x="373" 
d="M151 616q28 21 59 35t60 14q45 0 68 -21.5t23 -56.5q0 -37 -19.5 -68t-51 -59.5t-71.5 -57t-80 -61.5h175l-9 -42h-236l9 42q32 32 72 61t75 57.5t59 58t24 61.5q0 16 -9.5 31t-38.5 15q-26 0 -55.5 -15.5t-51.5 -37.5z" />
    <glyph glyph-name="threesuperior" unicode="&#xb3;" horiz-adv-x="355" 
d="M154 635q23 13 46.5 21.5t47.5 8.5q46 0 70.5 -19t24.5 -55q0 -33 -23 -55t-52 -35q28 -9 43.5 -27t15.5 -46q0 -24 -10 -47.5t-31 -43t-52.5 -31.5t-74.5 -12q-35 0 -54.5 10t-38.5 28l21 40q17 -17 32.5 -27.5t45.5 -10.5q61 0 87 28t26 69q0 23 -18 36.5t-64 13.5h-12
l7 34h15q45 0 66 21t21 54q0 16 -10.5 25.5t-39.5 9.5q-27 0 -47.5 -8.5t-38.5 -20.5z" />
    <glyph glyph-name="acute" unicode="&#xb4;" horiz-adv-x="219" 
d="M124 552l-2 20l4 7l202 101q14 -1 21.5 -9t7.5 -19q0 -13 -9 -26l-218 -77z" />
    <glyph glyph-name="mu" unicode="&#xb5;" horiz-adv-x="577" 
d="M226 460l-65 -304q-4 -16 -4 -35q0 -32 17 -53t60 -21q51 0 101 30t81 88l62 295h70l-97 -460h-55l10 86h-4q-22 -42 -73 -70t-118 -28q-32 0 -59 8t-44 27l-6 -13q-17 -38 -38.5 -75t-47.5 -75l-58 29q25 34 45.5 64.5t37 61.5t28.5 63t20 69l67 313h70z" />
    <glyph glyph-name="paragraph" unicode="&#xb6;" horiz-adv-x="538" 
d="M283 248h-21q-50 0 -86 13t-59.5 35.5t-34.5 52.5t-11 64q0 59 21.5 105.5t60.5 79t92 50t116 17.5q35 0 75.5 -1.5t82.5 -3.5l-158 -746h-45l145 685h-54l-145 -685h-50z" />
    <glyph glyph-name="periodcentered" unicode="&#xb7;" horiz-adv-x="243" 
d="M67 235q0 21 18 38.5t40 17.5q16 0 27 -12t11 -29q0 -11 -5.5 -20.5t-13.5 -16.5t-18.5 -11.5t-20.5 -4.5q-17 0 -27.5 11t-10.5 27z" />
    <glyph glyph-name="cedilla" unicode="&#xb8;" horiz-adv-x="202" 
d="M-38 -178l18 23h7q11 -5 29.5 -8.5t37.5 -3.5q25 0 44.5 10.5t19.5 40.5q0 20 -13 27.5t-31 7.5q-12 0 -25.5 -2t-24.5 -5l-6 11l67 77h34l-41 -51q19 4 35 4q30 0 47.5 -17t17.5 -43q0 -19 -10.5 -36t-28 -30.5t-41 -21.5t-49.5 -8q-24 0 -46.5 5.5t-40.5 13.5v6z" />
    <glyph glyph-name="onesuperior" unicode="&#xb9;" horiz-adv-x="244" 
d="M168 299h-54l61 286l-63 -28l-4 42l138 66z" />
    <glyph glyph-name="ordmasculine" unicode="&#xba;" horiz-adv-x="389" 
d="M274 658q56 0 84 -35t28 -83q0 -32 -11.5 -62.5t-34 -54.5t-54.5 -39t-73 -15q-30 0 -51 9.5t-34.5 25t-20 36t-6.5 43.5q0 34 13 65.5t36 56t54.5 39t69.5 14.5zM222 410q30 0 51.5 11t35 29t19.5 40.5t6 45.5q0 32 -17 55t-55 23q-32 0 -53 -12t-33.5 -30.5
t-17.5 -40.5t-5 -43q0 -33 16.5 -55.5t52.5 -22.5z" />
    <glyph glyph-name="guillemotright" unicode="&#xbb;" horiz-adv-x="481" 
d="M355 243l-107 177h79l97 -177l-1 -5l-171 -177h-80l182 177zM193 243l-107 177h79l97 -177l-1 -5l-171 -177h-80l182 177z" />
    <glyph glyph-name="onequarter" unicode="&#xbc;" horiz-adv-x="712" 
d="M634 110h-36l-24 -111h-45l24 111h-150l9 42l192 213h48l-45 -213h36zM562 152l33 154l-132 -154h99zM82 -24h-65l615 715h65zM165 299h-54l61 286l-63 -28l-4 42l138 66z" />
    <glyph glyph-name="onehalf" unicode="&#xbd;" horiz-adv-x="714" 
d="M167 299h-54l61 286l-63 -28l-4 42l138 66zM64 -24h-65l615 715h65zM459 315q28 21 59 35t60 14q45 0 68 -21.5t23 -56.5q0 -37 -19.5 -68t-51 -59.5t-71.5 -57t-80 -61.5h175l-9 -42h-236l9 42q32 32 72 61t75 57.5t59 58t24 61.5q0 16 -9.5 31t-38.5 15
q-26 0 -55.5 -15.5t-51.5 -37.5z" />
    <glyph glyph-name="threequarters" unicode="&#xbe;" horiz-adv-x="751" 
d="M137 635q23 13 46.5 21.5t47.5 8.5q46 0 70.5 -19t24.5 -55q0 -33 -23 -55t-52 -35q28 -9 43.5 -27t15.5 -46q0 -24 -10 -47.5t-31 -43t-52.5 -31.5t-74.5 -12q-35 0 -54.5 10t-38.5 28l21 40q17 -17 32.5 -27.5t45.5 -10.5q61 0 87 28t26 69q0 23 -18 36.5t-64 13.5h-12
l7 34h15q45 0 66 21t21 54q0 16 -10.5 25.5t-39.5 9.5q-27 0 -47.5 -8.5t-38.5 -20.5zM672 110h-36l-24 -111h-45l24 111h-150l9 42l192 213h48l-45 -213h36zM600 152l33 154l-132 -154h99zM134 -24h-65l615 715h65z" />
    <glyph glyph-name="questiondown" unicode="&#xbf;" horiz-adv-x="406" 
d="M306 437q0 -21 -17 -38.5t-40 -17.5q-17 0 -28 11.5t-11 28.5q0 21 19 37.5t40 16.5q17 0 27 -11t10 -27zM274 -173q-32 -21 -74.5 -35t-80.5 -14q-69 0 -106.5 36t-37.5 94q0 36 14 66.5t36 58.5t48.5 56.5t52 61.5t47 72.5t32.5 89.5h64q-12 -55 -33 -96t-45.5 -73.5
t-50 -59t-46 -51.5t-33.5 -52t-13 -61q0 -32 20.5 -54.5t65.5 -22.5q16 0 34.5 4t37 10.5t35 15.5t29.5 20z" />
    <glyph glyph-name="Agrave" unicode="&#xc0;" horiz-adv-x="643" 
d="M595 0h-85l-50 222h-295l-135 -222h-80l404 660h91zM207 292h237l-63 284zM517 718l-185 77q-1 2 -1 5.5v5.5q0 17 11.5 29t31.5 13l160 -100l1 -7l-10 -20z" />
    <glyph glyph-name="Aacute" unicode="&#xc1;" horiz-adv-x="643" 
d="M595 0h-85l-50 222h-295l-135 -222h-80l404 660h91zM207 292h237l-63 284zM318 721l-1 20l4 7l201 100q15 -1 22 -8.5t7 -18.5q0 -14 -8 -26l-218 -77z" />
    <glyph glyph-name="Acircumflex" unicode="&#xc2;" horiz-adv-x="643" 
d="M595 0h-85l-50 222h-295l-135 -222h-80l404 660h91zM207 292h237l-63 284zM454 842l89 -99l1 -7l-10 -20l-7 -3l-91 62l-117 -62l-7 3l-2 20l5 7l131 99h8z" />
    <glyph glyph-name="Atilde" unicode="&#xc3;" horiz-adv-x="643" 
d="M595 0h-85l-50 222h-295l-135 -222h-80l404 660h91zM207 292h237l-63 284zM601 832q-6 -14 -15.5 -27.5t-22.5 -24.5t-29.5 -18t-37.5 -7q-40 0 -80 7t-72 7q-25 0 -36 -6.5t-24 -18.5l-11 8q7 13 16.5 27t22.5 24.5t30 17.5t38 7q25 0 43 -2t33.5 -5t30 -5t33.5 -2
q17 0 35 4t36 22z" />
    <glyph glyph-name="Adieresis" unicode="&#xc4;" horiz-adv-x="643" 
d="M595 0h-85l-50 222h-295l-135 -222h-80l404 660h91zM207 292h237l-63 284zM317 786q0 20 15.5 36.5t35.5 16.5q14 0 24 -11t10 -27q0 -21 -17 -36t-36 -15q-15 0 -23.5 10t-8.5 26zM474 786q0 20 15.5 36.5t35.5 16.5q14 0 23.5 -11t9.5 -26q0 -22 -17 -37t-35 -15
q-14 0 -23 10t-9 26z" />
    <glyph glyph-name="Aring" unicode="&#xc5;" horiz-adv-x="643" 
d="M425 782q35 0 53 -20t18 -46q0 -24 -14 -42t-34 -29l147 -645h-85l-50 222h-295l-135 -222h-80l395 645q-12 8 -18.5 21t-6.5 28q0 17 8 33t22.5 28t33.5 19.5t41 7.5zM208 292h236l-64 284zM399 654q22 0 39.5 18t17.5 40q0 17 -10.5 28.5t-27.5 11.5q-26 0 -42 -16
t-16 -39q0 -17 11 -30t28 -13z" />
    <glyph glyph-name="AE" unicode="&#xc6;" horiz-adv-x="762" 
d="M665 0h-332l47 222h-194l-165 -222h-82l492 660h354l-15 -70h-237l-43 -205h170l-15 -70h-170l-52 -245h257zM395 292l63 296l-220 -296h157z" />
    <glyph glyph-name="Ccedilla" unicode="&#xc7;" horiz-adv-x="644" 
d="M182 -178l17 23h7q11 -5 29 -8.5t38 -3.5q26 0 44.5 10.5t18.5 40.5q0 20 -12.5 27.5t-30.5 7.5q-12 0 -25 -2t-25 -5l-6 11l57 66q-61 4 -105 26t-72.5 57t-42 80t-13.5 96q0 81 28 156.5t81.5 133t130 92.5t173.5 35q54 0 105.5 -11.5t86.5 -31.5l-37 -72
q-27 21 -71 35t-104 14q-92 0 -152 -31t-95 -81t-49 -112t-14 -123q0 -97 48 -147.5t144 -50.5q63 0 119.5 18t94.5 44l6 -67q-44 -23 -101 -41t-125 -20l-32 -39q9 2 17.5 3t15.5 1q31 0 48.5 -16.5t17.5 -42.5q0 -19 -10.5 -36.5t-28 -31t-41 -21.5t-49.5 -8
q-24 0 -47 5.5t-40 13.5z" />
    <glyph glyph-name="Egrave" unicode="&#xc8;" horiz-adv-x="522" 
d="M424 0h-382l140 660h362l-15 -70h-287l-43 -205h220l-15 -70h-220l-52 -245h307zM469 718l-185 77q-1 2 -1 5.5v5.5q0 17 11.5 29t31.5 13l160 -100l2 -7l-11 -20z" />
    <glyph glyph-name="Eacute" unicode="&#xc9;" horiz-adv-x="522" 
d="M424 0h-382l140 660h362l-15 -70h-287l-43 -205h220l-15 -70h-220l-52 -245h307zM280 721l-1 20l4 7l202 100q29 -2 29 -27q0 -10 -3 -15.5t-6 -10.5l-218 -77z" />
    <glyph glyph-name="Ecircumflex" unicode="&#xca;" horiz-adv-x="522" 
d="M424 0h-382l140 660h362l-15 -70h-287l-43 -205h220l-15 -70h-220l-52 -245h307zM413 842l89 -99l1 -7l-10 -20l-7 -3l-91 62l-117 -62l-7 3l-2 20l5 7l131 99h8z" />
    <glyph glyph-name="Edieresis" unicode="&#xcb;" horiz-adv-x="522" 
d="M424 0h-382l140 660h362l-15 -70h-287l-43 -205h220l-15 -70h-220l-52 -245h307zM269 786q0 20 15.5 36.5t35.5 16.5q14 0 24 -11t10 -27q0 -21 -17 -36t-36 -15q-15 0 -23.5 10t-8.5 26zM426 786q0 20 15.5 36.5t35.5 16.5q14 0 24 -11t10 -27q0 -21 -17 -36t-36 -15
q-15 0 -23.5 10t-8.5 26z" />
    <glyph glyph-name="Igrave" unicode="&#xcc;" horiz-adv-x="274" 
d="M317 718l-186 77q-1 2 -1 5.5v5.5q0 17 11.5 29t31.5 13l160 -100l2 -7l-11 -20zM117 0h-75l140 660h75z" />
    <glyph glyph-name="Iacute" unicode="&#xcd;" horiz-adv-x="274" 
d="M137 721l-1 20l4 7l202 100q15 -1 22 -8.5t7 -18.5q0 -10 -3 -15.5t-6 -10.5l-217 -77zM117 0h-75l140 660h75z" />
    <glyph glyph-name="Icircumflex" unicode="&#xce;" horiz-adv-x="274" 
d="M260 842l90 -99l1 -7l-10 -20l-8 -3l-90 62l-117 -62l-8 3l-1 20l5 7l131 99h7zM117 0h-75l140 660h75z" />
    <glyph glyph-name="Idieresis" unicode="&#xcf;" horiz-adv-x="274" 
d="M130 786q0 20 15.5 36.5t35.5 16.5q14 0 24 -11t10 -27q0 -21 -17 -36t-36 -15q-14 0 -23 10t-9 26zM287 786q0 20 15.5 36.5t35.5 16.5q14 0 24 -11t10 -27q0 -21 -17 -36t-36 -15q-15 0 -23.5 10t-8.5 26zM117 0h-75l140 660h75z" />
    <glyph glyph-name="Eth" unicode="&#xd0;" horiz-adv-x="714" 
d="M29 326l9 44h87l62 290l5 1q23 3 49.5 4t54.5 1q59 0 107.5 -2t88 -9.5t71 -23t56.5 -41.5q29 -32 42.5 -82t13.5 -103q0 -79 -26 -154t-77 -133.5t-126 -94t-173 -35.5q-71 0 -126.5 3.5t-99.5 8.5l69 326h-87zM375 370l-9 -44h-175l-57 -266q63 -6 150 -6q77 0 135 26
t96.5 73t58 112t19.5 143q0 43 -10.5 78t-34 60t-60.5 39t-90 14q-40 0 -79 -0.5t-71 -2.5l-48 -226h175z" />
    <glyph glyph-name="Ntilde" unicode="&#xd1;" horiz-adv-x="705" 
d="M498 117l115 543h75l-140 -660h-85l-231 542l-115 -542h-75l140 660h85zM614 832q-6 -14 -15.5 -27.5t-22.5 -24.5t-29.5 -18t-37.5 -7q-40 0 -80 7t-72 7q-25 0 -36 -6.5t-24 -18.5l-11 8q7 13 16.5 27t22.5 24.5t30 17.5t38 7q25 0 43 -2t33.5 -5t30 -5t33.5 -2
q17 0 35 4t36 22z" />
    <glyph glyph-name="Ograve" unicode="&#xd2;" horiz-adv-x="762" 
d="M543 718l-185 77q0 2 -0.5 5.5t-0.5 5.5q0 17 11.5 29t32.5 13l158 -100l2 -7l-9 -20zM465 665q66 0 114.5 -21t81 -57.5t48.5 -85t16 -103.5q0 -75 -28 -148t-81.5 -131.5t-129.5 -94.5t-172 -36q-66 0 -114 20.5t-79 56t-46 83t-15 101.5q0 82 29 157t82.5 132.5
t128 92t165.5 34.5zM138 246q0 -90 51.5 -141t148.5 -51q78 0 136.5 31t97 80.5t57.5 112.5t19 127q0 43 -12.5 78.5t-38 61t-65 40t-93.5 14.5q-80 0 -137 -31t-93.5 -81t-53.5 -113.5t-17 -127.5z" />
    <glyph glyph-name="Oacute" unicode="&#xd3;" horiz-adv-x="762" 
d="M411 721l-1 20l4 7l202 100q14 -1 21 -8.5t7 -18.5q0 -10 -8 -26l-218 -77zM465 665q66 0 114.5 -21t81 -57.5t48.5 -85t16 -103.5q0 -75 -28 -148t-81.5 -131.5t-129.5 -94.5t-172 -36q-66 0 -114 20.5t-79 56t-46 83t-15 101.5q0 82 29 157t82.5 132.5t128 92
t165.5 34.5zM138 246q0 -90 51.5 -141t148.5 -51q78 0 136.5 31t97 80.5t57.5 112.5t19 127q0 43 -12.5 78.5t-38 61t-65 40t-93.5 14.5q-80 0 -137 -31t-93.5 -81t-53.5 -113.5t-17 -127.5z" />
    <glyph glyph-name="Ocircumflex" unicode="&#xd4;" horiz-adv-x="762" 
d="M516 842l89 -99l2 -7l-10 -20l-8 -3l-91 62l-117 -62l-6 3l-2 20l4 7l131 99h8zM465 665q66 0 114.5 -21t81 -57.5t48.5 -85t16 -103.5q0 -75 -28 -148t-81.5 -131.5t-129.5 -94.5t-172 -36q-66 0 -114 20.5t-79 56t-46 83t-15 101.5q0 82 29 157t82.5 132.5t128 92
t165.5 34.5zM138 246q0 -90 51.5 -141t148.5 -51q78 0 136.5 31t97 80.5t57.5 112.5t19 127q0 43 -12.5 78.5t-38 61t-65 40t-93.5 14.5q-80 0 -137 -31t-93.5 -81t-53.5 -113.5t-17 -127.5z" />
    <glyph glyph-name="Otilde" unicode="&#xd5;" horiz-adv-x="762" 
d="M657 832q-6 -14 -15 -27.5t-22 -24.5t-29.5 -18t-37.5 -7q-40 0 -80 7t-72 7q-25 0 -36.5 -6.5t-23.5 -18.5l-12 8q7 13 17 27t22.5 24.5t29.5 17.5t38 7q25 0 43 -2t33.5 -5t30 -5t33.5 -2q17 0 35.5 4t35.5 22zM465 665q66 0 114.5 -21t81 -57.5t48.5 -85t16 -103.5
q0 -75 -28 -148t-81.5 -131.5t-129.5 -94.5t-172 -36q-66 0 -114 20.5t-79 56t-46 83t-15 101.5q0 82 29 157t82.5 132.5t128 92t165.5 34.5zM138 246q0 -90 51.5 -141t148.5 -51q78 0 136.5 31t97 80.5t57.5 112.5t19 127q0 43 -12.5 78.5t-38 61t-65 40t-93.5 14.5
q-80 0 -137 -31t-93.5 -81t-53.5 -113.5t-17 -127.5z" />
    <glyph glyph-name="Odieresis" unicode="&#xd6;" horiz-adv-x="762" 
d="M372 786q0 20 16 36.5t36 16.5q14 0 23.5 -11t9.5 -27q0 -21 -16.5 -36t-35.5 -15q-15 0 -24 10t-9 26zM529 786q0 20 16 36.5t36 16.5q14 0 23.5 -11t9.5 -27q0 -21 -16.5 -36t-35.5 -15q-15 0 -24 10t-9 26zM465 665q66 0 114.5 -21t81 -57.5t48.5 -85t16 -103.5
q0 -75 -28 -148t-81.5 -131.5t-129.5 -94.5t-172 -36q-66 0 -114 20.5t-79 56t-46 83t-15 101.5q0 82 29 157t82.5 132.5t128 92t165.5 34.5zM138 246q0 -90 51.5 -141t148.5 -51q78 0 136.5 31t97 80.5t57.5 112.5t19 127q0 43 -12.5 78.5t-38 61t-65 40t-93.5 14.5
q-80 0 -137 -31t-93.5 -81t-53.5 -113.5t-17 -127.5z" />
    <glyph glyph-name="multiply" unicode="&#xd7;" horiz-adv-x="456" 
d="M212 202l-146 -121l-29 37l146 121l-95 120l45 37l95 -120l147 121l29 -37l-147 -121l96 -122l-45 -37z" />
    <glyph glyph-name="Oslash" unicode="&#xd8;" horiz-adv-x="761" 
d="M97 97q-37 64 -37 152q0 82 29 157t82.5 132.5t128 92t165.5 34.5q55 0 97.5 -15t74.5 -42l83 79l43 -39l-87 -83q24 -35 36 -77t12 -90q0 -75 -28 -148t-81 -131.5t-129 -94.5t-172 -36q-60 0 -104.5 16.5t-75.5 46.5l-91 -86l-39 43zM648 405q0 62 -27 109l-431 -409
q53 -51 148 -51q78 0 136.5 31t97 80.5t57.5 112.5t19 127zM138 246q0 -54 18 -93l427 404q-26 20 -61 31t-83 11q-80 0 -137 -31t-93.5 -81t-53.5 -113.5t-17 -127.5z" />
    <glyph glyph-name="Ugrave" unicode="&#xd9;" horiz-adv-x="689" 
d="M521 718l-184 77q-1 2 -1 5.5v5.5q0 17 11.5 29t31.5 13l160 -100v-7l-9 -20zM164 256q-9 -41 -9 -72q0 -69 38 -99.5t107 -30.5q84 0 142 47t81 155l86 404h70l-93 -438q-11 -49 -35 -91.5t-61.5 -74t-88.5 -49.5t-115 -18q-58 0 -98 12.5t-65.5 34.5t-37 52.5
t-11.5 66.5q0 30 8 67l93 438h75z" />
    <glyph glyph-name="Uacute" unicode="&#xda;" horiz-adv-x="689" 
d="M351 721l-2 20l5 7l202 100q29 -2 29 -27q0 -10 -3 -15.5t-6 -10.5l-218 -77zM164 256q-9 -41 -9 -72q0 -69 38 -99.5t107 -30.5q84 0 142 47t81 155l86 404h70l-93 -438q-11 -49 -35 -91.5t-61.5 -74t-88.5 -49.5t-115 -18q-58 0 -98 12.5t-65.5 34.5t-37 52.5
t-11.5 66.5q0 30 8 67l93 438h75z" />
    <glyph glyph-name="Ucircumflex" unicode="&#xdb;" horiz-adv-x="689" 
d="M466 842l90 -99v-7l-9 -20l-9 -3l-90 62l-117 -62l-8 3v20l4 7l132 99h7zM164 256q-9 -41 -9 -72q0 -69 38 -99.5t107 -30.5q84 0 142 47t81 155l86 404h70l-93 -438q-11 -49 -35 -91.5t-61.5 -74t-88.5 -49.5t-115 -18q-58 0 -98 12.5t-65.5 34.5t-37 52.5t-11.5 66.5
q0 30 8 67l93 438h75z" />
    <glyph glyph-name="Udieresis" unicode="&#xdc;" horiz-adv-x="689" 
d="M346 786q0 20 16 36.5t36 16.5q14 0 23.5 -11t9.5 -27q0 -21 -16.5 -36t-35.5 -15q-15 0 -24 10t-9 26zM503 786q0 20 16 36.5t36 16.5q14 0 23.5 -11t9.5 -27q0 -21 -16.5 -36t-35.5 -15q-15 0 -24 10t-9 26zM164 256q-9 -41 -9 -72q0 -69 38 -99.5t107 -30.5
q84 0 142 47t81 155l86 404h70l-93 -438q-11 -49 -35 -91.5t-61.5 -74t-88.5 -49.5t-115 -18q-58 0 -98 12.5t-65.5 34.5t-37 52.5t-11.5 66.5q0 30 8 67l93 438h75z" />
    <glyph glyph-name="Yacute" unicode="&#xdd;" horiz-adv-x="565" 
d="M312 721l-1 20l5 7l201 100q29 -2 29 -27q0 -10 -8 -26l-219 -77zM68 660h89l142 -317l269 317h87l-338 -389l-57 -271h-75l56 267z" />
    <glyph glyph-name="Thorn" unicode="&#xde;" horiz-adv-x="522" 
d="M225 533q20 1 40.5 1.5t33.5 0.5q94 0 146 -41t52 -119q0 -44 -15.5 -86.5t-49 -76t-86 -54t-127.5 -20.5q-14 0 -35.5 0.5t-41.5 2.5l-30 -141h-70l140 660h70zM287 469q-13 0 -35 -0.5t-41 -1.5l-55 -259q19 -2 40 -3t33 -1q98 0 141.5 45.5t43.5 124.5q0 45 -28.5 70
t-98.5 25z" />
    <glyph glyph-name="germandbls" unicode="&#xdf;" horiz-adv-x="542" 
d="M89 0h-70l103 486q12 56 33.5 102t51.5 79t68.5 51t84.5 18q33 0 58 -9.5t42.5 -25t26.5 -36.5t9 -44q0 -40 -23.5 -73t-51.5 -61.5t-51.5 -54t-23.5 -51.5q0 -17 10.5 -31t25.5 -27.5t33.5 -28t33.5 -32.5t25.5 -41t10.5 -54q0 -48 -20 -82t-48.5 -55.5t-61 -31.5
t-57.5 -10q-33 0 -58 13.5t-39 30.5l35 71q8 -30 31 -46.5t50 -16.5q18 0 34 7.5t29 21.5t20.5 35t7.5 48q0 40 -20.5 64t-45 44t-45 42.5t-20.5 59.5q0 29 10.5 52.5t26.5 43t34.5 37.5t34.5 35.5t26.5 37t10.5 42.5q0 26 -19 45.5t-58 19.5q-36 0 -61.5 -16t-42.5 -42
t-28 -60.5t-19 -70.5z" />
    <glyph glyph-name="agrave" unicode="&#xe0;" 
d="M425 549l-186 77q0 23 9.5 38t33.5 16l159 -101l2 -7l-10 -20zM537 460l-97 -460h-55l10 82h-4q-32 -37 -84 -65.5t-116 -28.5q-41 0 -71 14.5t-49.5 39.5t-29 58.5t-9.5 70.5q0 57 18.5 111.5t54 97t86 69t114.5 26.5q67 0 104 -29t41 -72l32 86h55zM211 47
q48 0 100.5 26t90.5 75l31 147q-6 57 -41.5 89t-88.5 32q-42 0 -78.5 -19t-62.5 -51t-41 -76t-15 -93q0 -25 5.5 -48.5t18 -41.5t32.5 -29t49 -11z" />
    <glyph glyph-name="aacute" unicode="&#xe1;" 
d="M299 552v20l4 7l201 101q15 -1 22.5 -9t7.5 -19t-9 -26l-218 -77zM537 460l-97 -460h-55l10 82h-4q-32 -37 -84 -65.5t-116 -28.5q-41 0 -71 14.5t-49.5 39.5t-29 58.5t-9.5 70.5q0 57 18.5 111.5t54 97t86 69t114.5 26.5q67 0 104 -29t41 -72l32 86h55zM211 47
q48 0 100.5 26t90.5 75l31 147q-6 57 -41.5 89t-88.5 32q-42 0 -78.5 -19t-62.5 -51t-41 -76t-15 -93q0 -25 5.5 -48.5t18 -41.5t32.5 -29t49 -11z" />
    <glyph glyph-name="acircumflex" unicode="&#xe2;" 
d="M385 673l89 -99l1 -7l-10 -19l-7 -3l-91 61l-116 -61l-8 3l-2 19l5 7l131 99h8zM537 460l-97 -460h-55l10 82h-4q-32 -37 -84 -65.5t-116 -28.5q-41 0 -71 14.5t-49.5 39.5t-29 58.5t-9.5 70.5q0 57 18.5 111.5t54 97t86 69t114.5 26.5q67 0 104 -29t41 -72l32 86h55z
M211 47q48 0 100.5 26t90.5 75l31 147q-6 57 -41.5 89t-88.5 32q-42 0 -78.5 -19t-62.5 -51t-41 -76t-15 -93q0 -25 5.5 -48.5t18 -41.5t32.5 -29t49 -11z" />
    <glyph glyph-name="atilde" unicode="&#xe3;" 
d="M546 668q-1 -3 -8.5 -15.5t-21 -26t-32 -24.5t-42.5 -11q-11 0 -31 1.5t-43.5 3t-46.5 3t-39 1.5q-25 0 -36 -6.5t-24 -18.5l-11 8q1 7 10 20t23.5 25.5t33.5 21.5t40 9q26 0 64.5 -4.5t82.5 -4.5q17 0 35.5 4t35.5 22zM537 460l-97 -460h-55l10 82h-4q-32 -37 -84 -65.5
t-116 -28.5q-41 0 -71 14.5t-49.5 39.5t-29 58.5t-9.5 70.5q0 57 18.5 111.5t54 97t86 69t114.5 26.5q67 0 104 -29t41 -72l32 86h55zM211 47q48 0 100.5 26t90.5 75l31 147q-6 57 -41.5 89t-88.5 32q-42 0 -78.5 -19t-62.5 -51t-41 -76t-15 -93q0 -25 5.5 -48.5t18 -41.5
t32.5 -29t49 -11z" />
    <glyph glyph-name="adieresis" unicode="&#xe4;" 
d="M260 618q0 20 16 36.5t36 16.5q14 0 23 -11t9 -26q0 -22 -17 -37t-34 -15q-15 0 -24 10t-9 26zM417 617q0 21 16 37.5t35 16.5q14 0 23.5 -11t9.5 -27q0 -21 -16.5 -36t-35.5 -15q-14 0 -23 10t-9 25zM537 460l-97 -460h-55l10 82h-4q-32 -37 -84 -65.5t-116 -28.5
q-41 0 -71 14.5t-49.5 39.5t-29 58.5t-9.5 70.5q0 57 18.5 111.5t54 97t86 69t114.5 26.5q67 0 104 -29t41 -72l32 86h55zM211 47q48 0 100.5 26t90.5 75l31 147q-6 57 -41.5 89t-88.5 32q-42 0 -78.5 -19t-62.5 -51t-41 -76t-15 -93q0 -25 5.5 -48.5t18 -41.5t32.5 -29
t49 -11z" />
    <glyph glyph-name="aring" unicode="&#xe5;" 
d="M397 683q34 0 51.5 -19.5t17.5 -43.5q0 -15 -7 -29.5t-20 -26.5t-31.5 -19t-40.5 -7q-36 0 -52.5 19t-16.5 42q0 15 7.5 30t20.5 27t31.5 19.5t39.5 7.5zM372 562q23 0 39 17.5t16 37.5q0 16 -9 29t-27 13q-24 0 -39.5 -18.5t-15.5 -37.5q0 -16 9.5 -28.5t26.5 -12.5z
M537 460l-97 -460h-55l10 82h-4q-32 -37 -84 -65.5t-116 -28.5q-41 0 -71 14.5t-49.5 39.5t-29 58.5t-9.5 70.5q0 57 18.5 111.5t54 97t86 69t114.5 26.5q67 0 104 -29t41 -72l32 86h55zM211 47q48 0 100.5 26t90.5 75l31 147q-6 57 -41.5 89t-88.5 32q-42 0 -78.5 -19
t-62.5 -51t-41 -76t-15 -93q0 -25 5.5 -48.5t18 -41.5t32.5 -29t49 -11z" />
    <glyph glyph-name="ae" unicode="&#xe6;" horiz-adv-x="817" 
d="M433 396q36 34 88 56.5t109 22.5q75 0 114 -34.5t39 -97.5q0 -29 -9 -57.5t-18 -40.5h-337l-4 -18q-6 -27 -6 -51q0 -57 31.5 -96t98.5 -39q24 0 48 5t46.5 12.5t42 17t35.5 19.5l2 -53q-15 -8 -36 -17.5t-46 -17.5t-53.5 -13.5t-58.5 -5.5q-67 0 -109 27.5t-61 72.5h-4
q-52 -55 -114.5 -77.5t-119.5 -22.5q-54 0 -80.5 30t-26.5 75t16 77t42 54.5t59 35.5t67.5 20.5t67 9.5t58.5 2h45l3 12q2 11 3.5 19t1.5 16q0 20 -7.5 33.5t-19.5 23.5q-15 11 -33.5 15.5t-50.5 4.5q-42 0 -76 -11t-68 -29l-3 60q75 39 168 39q37 0 69 -6.5t53 -22.5
q11 -8 19.5 -22t10.5 -28h4zM145 47q20 0 44 6.5t48.5 19.5t48 32t42.5 43l20 93h-9q-45 0 -91 -4t-83.5 -17.5t-61 -40t-23.5 -71.5q0 -29 17 -45t48 -16zM615 419q-66 0 -110 -34.5t-68 -86.5h273q2 5 5 11.5t3 24.5q0 42 -30 63.5t-73 21.5z" />
    <glyph glyph-name="ccedilla" unicode="&#xe7;" horiz-adv-x="500" 
d="M460 376q-19 17 -59 30.5t-83 13.5q-53 0 -92 -20t-64.5 -52.5t-38 -72.5t-12.5 -80q0 -31 8 -58.5t24.5 -48.5t41.5 -33t60 -12q40 0 84.5 15.5t78.5 41.5l3 -62q-30 -17 -78.5 -32.5t-101.5 -17.5l-32 -39q9 2 18 3t16 1q30 0 47.5 -16.5t17.5 -42.5q0 -19 -10.5 -36.5
t-28 -31t-41 -21.5t-49.5 -8q-24 0 -47 5.5t-40 13.5l1 6l18 23h7q11 -5 28.5 -8.5t37.5 -3.5q26 0 44.5 10.5t18.5 40.5q0 20 -12.5 27.5t-30.5 7.5q-12 0 -25 -2t-25 -5l-6 11l57 66q-42 4 -72 20.5t-50 42t-29.5 58.5t-9.5 70q0 54 18 107t55 94.5t93 67.5t131 26
q48 0 91.5 -11t67.5 -29z" />
    <glyph glyph-name="egrave" unicode="&#xe8;" horiz-adv-x="515" 
d="M328 475q75 0 114 -34.5t39 -97.5q0 -29 -9 -57.5t-18 -40.5h-340q-6 -29 -6 -57q0 -30 7.5 -56.5t23 -46.5t40 -32t57.5 -12q48 0 94.5 17t78.5 37l2 -53q-15 -8 -36 -17.5t-46 -17.5t-53.5 -13.5t-58.5 -5.5q-47 0 -81.5 15.5t-57.5 41.5t-34.5 61t-11.5 74
q0 56 21 109t60 94.5t93.5 66.5t121.5 25zM313 419q-69 0 -114 -35t-68 -86h277q2 5 4.5 11.5t2.5 24.5q0 42 -30 63.5t-72 21.5zM402 549l-185 77q0 23 9.5 38t33.5 16l159 -101l1 -7l-9 -20z" />
    <glyph glyph-name="eacute" unicode="&#xe9;" horiz-adv-x="515" 
d="M328 475q75 0 114 -34.5t39 -97.5q0 -29 -9 -57.5t-18 -40.5h-340q-6 -29 -6 -57q0 -30 7.5 -56.5t23 -46.5t40 -32t57.5 -12q48 0 94.5 17t78.5 37l2 -53q-15 -8 -36 -17.5t-46 -17.5t-53.5 -13.5t-58.5 -5.5q-47 0 -81.5 15.5t-57.5 41.5t-34.5 61t-11.5 74
q0 56 21 109t60 94.5t93.5 66.5t121.5 25zM313 419q-69 0 -114 -35t-68 -86h277q2 5 4.5 11.5t2.5 24.5q0 42 -30 63.5t-72 21.5zM259 552l-2 20l5 7l201 101q15 -1 22 -9t7 -19q0 -9 -2.5 -15t-5.5 -11l-219 -77z" />
    <glyph glyph-name="ecircumflex" unicode="&#xea;" horiz-adv-x="515" 
d="M328 475q75 0 114 -34.5t39 -97.5q0 -29 -9 -57.5t-18 -40.5h-340q-6 -29 -6 -57q0 -30 7.5 -56.5t23 -46.5t40 -32t57.5 -12q48 0 94.5 17t78.5 37l2 -53q-15 -8 -36 -17.5t-46 -17.5t-53.5 -13.5t-58.5 -5.5q-47 0 -81.5 15.5t-57.5 41.5t-34.5 61t-11.5 74
q0 56 21 109t60 94.5t93.5 66.5t121.5 25zM313 419q-69 0 -114 -35t-68 -86h277q2 5 4.5 11.5t2.5 24.5q0 42 -30 63.5t-72 21.5zM361 673l90 -99v-7l-9 -19l-8 -3l-90 61l-117 -61l-8 3l-1 19l4 7l132 99h7z" />
    <glyph glyph-name="edieresis" unicode="&#xeb;" horiz-adv-x="515" 
d="M328 475q75 0 114 -34.5t39 -97.5q0 -29 -9 -57.5t-18 -40.5h-340q-6 -29 -6 -57q0 -30 7.5 -56.5t23 -46.5t40 -32t57.5 -12q48 0 94.5 17t78.5 37l2 -53q-15 -8 -36 -17.5t-46 -17.5t-53.5 -13.5t-58.5 -5.5q-47 0 -81.5 15.5t-57.5 41.5t-34.5 61t-11.5 74
q0 56 21 109t60 94.5t93.5 66.5t121.5 25zM313 419q-69 0 -114 -35t-68 -86h277q2 5 4.5 11.5t2.5 24.5q0 42 -30 63.5t-72 21.5zM381 618q0 20 15.5 36.5t35.5 16.5q14 0 24 -11t10 -27q0 -21 -17 -36t-36 -15q-14 0 -23 10t-9 26zM224 618q0 20 15.5 36.5t35.5 16.5
q14 0 24 -11t10 -27q0 -21 -17 -36t-36 -15q-14 0 -23 10t-9 26z" />
    <glyph glyph-name="igrave" unicode="&#xec;" horiz-adv-x="224" 
d="M229 549l-185 77q-1 2 -1 5.5v5.5q0 17 11.5 29.5t32.5 13.5l159 -101l2 -7l-11 -20zM89 0h-70l98 460h70z" />
    <glyph glyph-name="iacute" unicode="&#xed;" horiz-adv-x="224" 
d="M79 552l-1 20l4 7l202 101q14 -1 21.5 -9t7.5 -19t-9 -26l-218 -77zM89 0h-70l98 460h70z" />
    <glyph glyph-name="icircumflex" unicode="&#xee;" horiz-adv-x="224" 
d="M198 673l89 -99l2 -7l-11 -19l-7 -3l-91 61l-116 -61l-8 3l-1 19l4 7l131 99h8zM89 0h-70l98 460h70z" />
    <glyph glyph-name="idieresis" unicode="&#xef;" horiz-adv-x="224" 
d="M65 618q0 20 16 36.5t36 16.5q14 0 23.5 -11t9.5 -27q0 -21 -16.5 -36t-35.5 -15q-15 0 -24 10t-9 26zM222 618q0 20 16 36.5t36 16.5q14 0 23.5 -11t9.5 -27q0 -21 -16.5 -36t-35.5 -15q-15 0 -24 10t-9 26zM89 0h-70l98 460h70z" />
    <glyph glyph-name="eth" unicode="&#xf0;" horiz-adv-x="577" 
d="M445 740q15 -17 27.5 -41t23.5 -54l126 32l8 -48l-121 -30q11 -42 16 -87t5 -92q0 -41 -5 -89t-18 -96t-35 -92.5t-56.5 -79t-82.5 -55t-113 -20.5q-51 0 -86 16t-57.5 42.5t-32.5 61t-10 72.5q0 54 18 107t54.5 95t91 67.5t127.5 25.5q55 0 94.5 -18.5t50.5 -60.5l3 1
q-1 60 -5.5 105.5t-14.5 83.5l-132 -32l-7 46l124 31q-11 29 -27.5 55t-38.5 54h73zM231 41q50 0 88.5 22.5t65 57.5t40 78t13.5 85q0 67 -34.5 101.5t-93.5 34.5q-53 0 -90.5 -21.5t-62 -55.5t-36 -75t-11.5 -81q0 -29 7 -55.5t21.5 -46.5t37.5 -32t55 -12z" />
    <glyph glyph-name="ntilde" unicode="&#xf1;" horiz-adv-x="543" 
d="M513 663q-6 -14 -15.5 -27.5t-22 -24.5t-29 -18t-37.5 -7q-40 0 -80 7t-72 7q-25 0 -36.5 -6.5t-24.5 -18.5l-11 8q7 13 17 27t22.5 24.5t29.5 17.5t38 7q25 0 43 -2t33.5 -5t30 -5t33.5 -2q17 0 35.5 4t35.5 22zM342 0l65 304q4 19 4 38q0 40 -21 57t-56 17
q-25 0 -51 -8t-50 -23.5t-45 -38t-36 -51.5l-63 -295h-70l98 460h55l-11 -86h4q22 42 73.5 71.5t118.5 29.5q27 0 50.5 -6t40.5 -19t27 -34t10 -52q0 -23 -6 -51l-67 -313h-70z" />
    <glyph glyph-name="ograve" unicode="&#xf2;" horiz-adv-x="564" 
d="M402 549l-186 77q-1 2 -1 5.5v5.5q0 17 12 29.5t31 13.5l160 -101l1 -7l-10 -20zM324 475q50 0 85.5 -15.5t58.5 -42t33.5 -61t10.5 -73.5q0 -56 -18 -109t-54 -94t-90 -66.5t-126 -25.5q-50 0 -86.5 15t-59.5 41.5t-34 61t-11 73.5q0 55 19 108t55.5 95t91 67.5
t125.5 25.5zM235 41q50 0 87.5 20.5t63 53.5t38 74.5t12.5 83.5q0 30 -7 56.5t-22.5 46.5t-39.5 31.5t-58 11.5q-50 0 -88 -20.5t-63 -53.5t-37.5 -74.5t-12.5 -83.5q0 -29 7 -55.5t22.5 -46.5t39.5 -32t58 -12z" />
    <glyph glyph-name="oacute" unicode="&#xf3;" horiz-adv-x="564" 
d="M266 552l-2 20l5 7l201 101q15 -1 22.5 -9t7.5 -19t-9 -26l-218 -77zM324 475q50 0 85.5 -15.5t58.5 -42t33.5 -61t10.5 -73.5q0 -56 -18 -109t-54 -94t-90 -66.5t-126 -25.5q-50 0 -86.5 15t-59.5 41.5t-34 61t-11 73.5q0 55 19 108t55.5 95t91 67.5t125.5 25.5zM235 41
q50 0 87.5 20.5t63 53.5t38 74.5t12.5 83.5q0 30 -7 56.5t-22.5 46.5t-39.5 31.5t-58 11.5q-50 0 -88 -20.5t-63 -53.5t-37.5 -74.5t-12.5 -83.5q0 -29 7 -55.5t22.5 -46.5t39.5 -32t58 -12z" />
    <glyph glyph-name="ocircumflex" unicode="&#xf4;" horiz-adv-x="564" 
d="M378 673l89 -99l1 -7l-9 -19l-8 -3l-91 61l-116 -61l-8 3l-2 19l5 7l132 99h7zM324 475q50 0 85.5 -15.5t58.5 -42t33.5 -61t10.5 -73.5q0 -56 -18 -109t-54 -94t-90 -66.5t-126 -25.5q-50 0 -86.5 15t-59.5 41.5t-34 61t-11 73.5q0 55 19 108t55.5 95t91 67.5
t125.5 25.5zM235 41q50 0 87.5 20.5t63 53.5t38 74.5t12.5 83.5q0 30 -7 56.5t-22.5 46.5t-39.5 31.5t-58 11.5q-50 0 -88 -20.5t-63 -53.5t-37.5 -74.5t-12.5 -83.5q0 -29 7 -55.5t22.5 -46.5t39.5 -32t58 -12z" />
    <glyph glyph-name="otilde" unicode="&#xf5;" horiz-adv-x="564" 
d="M511 663q-6 -14 -15.5 -27.5t-22.5 -24.5t-29.5 -18t-37.5 -7q-40 0 -80 7t-72 7q-25 0 -36 -6.5t-24 -18.5l-11 8q7 13 16.5 27t22.5 24.5t30 17.5t38 7q25 0 43 -2t33.5 -5t30 -5t33.5 -2q17 0 35 4t36 22zM324 475q50 0 85.5 -15.5t58.5 -42t33.5 -61t10.5 -73.5
q0 -56 -18 -109t-54 -94t-90 -66.5t-126 -25.5q-50 0 -86.5 15t-59.5 41.5t-34 61t-11 73.5q0 55 19 108t55.5 95t91 67.5t125.5 25.5zM235 41q50 0 87.5 20.5t63 53.5t38 74.5t12.5 83.5q0 30 -7 56.5t-22.5 46.5t-39.5 31.5t-58 11.5q-50 0 -88 -20.5t-63 -53.5
t-37.5 -74.5t-12.5 -83.5q0 -29 7 -55.5t22.5 -46.5t39.5 -32t58 -12z" />
    <glyph glyph-name="odieresis" unicode="&#xf6;" horiz-adv-x="564" 
d="M236 618q0 20 16 36.5t36 16.5q14 0 23.5 -11t9.5 -27q0 -21 -16.5 -36t-35.5 -15q-15 0 -24 10t-9 26zM393 618q0 20 16 36.5t36 16.5q14 0 23.5 -11t9.5 -27q0 -21 -16.5 -36t-35.5 -15q-15 0 -24 10t-9 26zM324 475q50 0 85.5 -15.5t58.5 -42t33.5 -61t10.5 -73.5
q0 -56 -18 -109t-54 -94t-90 -66.5t-126 -25.5q-50 0 -86.5 15t-59.5 41.5t-34 61t-11 73.5q0 55 19 108t55.5 95t91 67.5t125.5 25.5zM235 41q50 0 87.5 20.5t63 53.5t38 74.5t12.5 83.5q0 30 -7 56.5t-22.5 46.5t-39.5 31.5t-58 11.5q-50 0 -88 -20.5t-63 -53.5
t-37.5 -74.5t-12.5 -83.5q0 -29 7 -55.5t22.5 -46.5t39.5 -32t58 -12z" />
    <glyph glyph-name="divide" unicode="&#xf7;" horiz-adv-x="562" 
d="M487 265l-11 -52h-414l11 52h414zM204 72q0 22 18 38.5t40 16.5q16 0 27 -11.5t11 -28.5q0 -11 -5.5 -20.5t-13.5 -17t-18.5 -12t-20.5 -4.5q-17 0 -27.5 11t-10.5 28zM271 389q0 21 18 38.5t40 17.5q16 0 27 -12t11 -29q0 -11 -5.5 -20.5t-13.5 -16.5t-18.5 -11.5
t-20.5 -4.5q-17 0 -27.5 11t-10.5 27z" />
    <glyph glyph-name="oslash" unicode="&#xf8;" horiz-adv-x="564" 
d="M58 74q-25 44 -25 105q0 55 19 108t55.5 95t91 67.5t125.5 25.5q42 0 73 -11t54 -30l65 60l43 -39l-72 -66q13 -23 19 -50t6 -56q0 -56 -18 -109t-54 -94t-90 -66.5t-125 -25.5q-43 0 -75 10.5t-55 30.5l-70 -64l-39 43zM235 41q50 0 87.5 20.5t63 53.5t38.5 74.5
t13 83.5q0 32 -9 61l-282 -259q15 -16 37 -25t52 -9zM109 187q0 -16 1.5 -30.5t6.5 -28.5l281 257q-16 16 -38 25t-51 9q-50 0 -87.5 -20.5t-62.5 -53.5t-37.5 -74.5t-12.5 -83.5z" />
    <glyph glyph-name="ugrave" unicode="&#xf9;" horiz-adv-x="542" 
d="M391 549l-184 77q-1 2 -1 5.5v5.5q0 17 11.5 29.5t31.5 13.5l159 -101l1 -7l-9 -20zM183 460l-65 -304q-2 -11 -3.5 -20.5t-1.5 -17.5q0 -40 21.5 -55.5t55.5 -15.5q51 0 101.5 30t81.5 88l62 295h70l-98 -460h-55l11 86h-4q-22 -42 -73 -70t-118 -28q-27 0 -50.5 5.5
t-40.5 18t-27 33.5t-10 51q0 22 6 51l67 313h70z" />
    <glyph glyph-name="uacute" unicode="&#xfa;" horiz-adv-x="542" 
d="M229 552v20l5 7l201 101q14 -1 21.5 -9t7.5 -19q0 -6 -2.5 -12.5t-5.5 -13.5l-219 -77zM183 460l-65 -304q-2 -11 -3.5 -20.5t-1.5 -17.5q0 -40 21.5 -55.5t55.5 -15.5q51 0 101.5 30t81.5 88l62 295h70l-98 -460h-55l11 86h-4q-22 -42 -73 -70t-118 -28q-27 0 -50.5 5.5
t-40.5 18t-27 33.5t-10 51q0 22 6 51l67 313h70z" />
    <glyph glyph-name="ucircumflex" unicode="&#xfb;" horiz-adv-x="542" 
d="M355 673l89 -99l1 -7l-9 -19l-9 -3l-91 61l-116 -61l-8 3v19l3 7l133 99h7zM183 460l-65 -304q-2 -11 -3.5 -20.5t-1.5 -17.5q0 -40 21.5 -55.5t55.5 -15.5q51 0 101.5 30t81.5 88l62 295h70l-98 -460h-55l11 86h-4q-22 -42 -73 -70t-118 -28q-27 0 -50.5 5.5t-40.5 18
t-27 33.5t-10 51q0 22 6 51l67 313h70z" />
    <glyph glyph-name="udieresis" unicode="&#xfc;" horiz-adv-x="542" 
d="M219 618q0 20 16 36.5t36 16.5q14 0 24 -11t10 -27q0 -21 -17 -36t-36 -15q-15 0 -24 10t-9 26zM376 618q0 20 16 36.5t36 16.5q14 0 24 -11t10 -27q0 -21 -17 -36t-36 -15q-15 0 -24 10t-9 26zM183 460l-65 -304q-2 -11 -3.5 -20.5t-1.5 -17.5q0 -40 21.5 -55.5
t55.5 -15.5q51 0 101.5 30t81.5 88l62 295h70l-98 -460h-55l11 86h-4q-22 -42 -73 -70t-118 -28q-27 0 -50.5 5.5t-40.5 18t-27 33.5t-10 51q0 22 6 51l67 313h70z" />
    <glyph glyph-name="yacute" unicode="&#xfd;" horiz-adv-x="518" 
d="M257 552l-2 20l5 7l201 101q15 -1 22 -9t7 -19q0 -9 -2.5 -15t-5.5 -11l-219 -77zM238 -4q-21 -32 -51.5 -75.5t-68.5 -82.5t-82.5 -66.5t-93.5 -27.5q-8 0 -11.5 0.5t-7.5 2.5v66q3 -1 6.5 -2t13.5 -1q20 0 38.5 4t38.5 16q41 25 79 73t75 112l-135 445h83l101 -383
l246 383h79z" />
    <glyph glyph-name="thorn" unicode="&#xfe;" horiz-adv-x="576" 
d="M367 475q41 0 71 -14.5t49.5 -39.5t29 -58.5t9.5 -70.5q0 -57 -19 -111.5t-54 -97t-85.5 -69t-114.5 -26.5q-67 0 -104 29t-41 72l-74 -349h-70l213 1000h70l-78 -366q14 17 35 35t46.5 32.5t55 24t61.5 9.5zM337 416q-48 0 -95.5 -26t-85.5 -75l-31 -147q3 -29 15.5 -51
t31 -38t42.5 -24t50 -8q43 0 77.5 19.5t58.5 52t37 74t13 85.5q0 28 -6.5 53t-20 44t-35 30t-51.5 11z" />
    <glyph glyph-name="ydieresis" unicode="&#xff;" horiz-adv-x="518" 
d="M208 618q0 20 15.5 36.5t35.5 16.5q14 0 24 -11t10 -27q0 -21 -17 -36t-36 -15q-14 0 -23 10t-9 26zM365 618q0 20 15.5 36.5t35.5 16.5q14 0 24 -11t10 -27q0 -21 -17 -36t-36 -15q-14 0 -23 10t-9 26zM238 -4q-21 -32 -51.5 -75.5t-68.5 -82.5t-82.5 -66.5t-93.5 -27.5
q-8 0 -11.5 0.5t-7.5 2.5v66q3 -1 6.5 -2t13.5 -1q20 0 38.5 4t38.5 16q41 25 79 73t75 112l-135 445h83l101 -383l246 383h79z" />
    <glyph glyph-name="Dcroat" unicode="&#x110;" horiz-adv-x="714" 
d="M29 326l9 44h87l62 290l5 1q23 3 49.5 4t54.5 1q59 0 107.5 -2t88 -9.5t71 -23t56.5 -41.5q29 -32 42.5 -82t13.5 -103q0 -79 -26 -154t-77 -133.5t-126 -94t-173 -35.5q-71 0 -126.5 3.5t-99.5 8.5l69 326h-87zM375 370l-9 -44h-175l-57 -266q63 -6 150 -6q77 0 135 26
t96.5 73t58 112t19.5 143q0 43 -10.5 78t-34 60t-60.5 39t-90 14q-40 0 -79 -0.5t-71 -2.5l-48 -226h175z" />
    <glyph glyph-name="dotlessi" unicode="&#x131;" horiz-adv-x="224" 
d="M89 0h-70l98 460h70z" />
    <glyph glyph-name="IJ" unicode="&#x132;" horiz-adv-x="548" 
d="M117 0h-75l140 660h75zM413 101q-11 -53 -31.5 -99.5t-49.5 -81.5t-66 -55.5t-82 -20.5l-2 55q39 0 66 19t44.5 48.5t28 65.5t17.5 70l119 558h75z" />
    <glyph glyph-name="ij" unicode="&#x133;" horiz-adv-x="452" 
d="M89 0h-70l98 460h70zM136 619q0 12 5.5 23t14 19.5t20 13.5t23.5 5q18 0 29.5 -13.5t11.5 -30.5q0 -24 -20 -41t-43 -17q-18 0 -29.5 12t-11.5 29zM316 -3q-11 -51 -30.5 -97.5t-46 -81.5t-59.5 -55.5t-71 -20.5q-7 0 -13 0.5t-8 2.5l-4 58q6 -3 21 -3q34 0 58 19.5
t40 48.5t26 64t17 66l98 462h70zM364 619q0 23 19 42t43 19q18 0 30 -13.5t12 -30.5q0 -24 -20 -41t-43 -17q-18 0 -29.5 12t-11.5 29z" />
    <glyph glyph-name="kgreenlandic" unicode="&#x138;" horiz-adv-x="471" 
d="M270 298l133 -298h-80l-112 250l-84 -69l-38 -181h-70l98 460h70l-42 -195l244 195h80z" />
    <glyph glyph-name="OE" unicode="&#x152;" horiz-adv-x="856" 
d="M758 0h-346q-45 -12 -98 -12q-66 0 -114 20.5t-79 56t-46 83t-15 101.5q0 82 29 157t82.5 132.5t128 92t165.5 34.5q19 0 36.5 -1.5t34.5 -3.5h343l-15 -70h-268l-44 -205h201l-15 -70h-201l-52 -245h288zM330 54q43 0 79 9l112 527q-33 9 -73 9q-86 0 -144 -30
t-93.5 -78.5t-51 -111t-15.5 -126.5q0 -97 47 -148t139 -51z" />
    <glyph glyph-name="oe" unicode="&#x153;" horiz-adv-x="911" 
d="M724 474q75 0 114 -34.5t39 -97.5q0 -29 -9 -57.5t-18 -40.5h-337l-2 -10q-6 -29 -6 -56q0 -29 7.5 -54t23 -44t39.5 -29.5t58 -10.5q24 0 48 5t46.5 12.5t42 17t35.5 19.5l2 -53q-15 -8 -36 -17.5t-46 -17.5t-53.5 -13.5t-58.5 -5.5q-68 0 -111.5 28t-61.5 74
q-36 -46 -89.5 -74t-126.5 -28q-50 0 -86.5 15t-59.5 41.5t-34 61t-11 73.5q0 55 19 108t55.5 95t91 67.5t125.5 25.5q74 0 115.5 -29.5t58.5 -77.5q39 48 96.5 77.5t129.5 29.5zM235 40q50 0 87.5 20.5t63 53.5t38 74.5t12.5 83.5q0 30 -7 56.5t-22.5 46.5t-39.5 31.5
t-58 11.5q-50 0 -88 -20.5t-63 -53.5t-37.5 -74.5t-12.5 -83.5q0 -29 7 -55.5t22.5 -46.5t39.5 -32t58 -12zM709 418q-66 0 -110 -34.5t-68 -86.5h273q2 5 5 11.5t3 24.5q0 42 -30 63.5t-73 21.5z" />
    <glyph glyph-name="Scaron" unicode="&#x160;" horiz-adv-x="556" 
d="M370 713l-90 99v7l9 20l9 3l90 -62l117 62l7 -3l1 -20l-4 -7l-132 -99h-7zM187 484q0 -20 9 -34t26.5 -25.5t44.5 -22t63 -23.5q30 -11 59.5 -24t52 -32.5t36.5 -46t14 -64.5q0 -60 -24.5 -102.5t-64 -69.5t-90.5 -39.5t-104 -12.5q-65 0 -117.5 16t-88.5 39l37 73
q16 -13 32.5 -24.5t37 -19.5t46.5 -13t61 -5q53 0 89.5 10t59.5 27.5t33.5 41t10.5 49.5q0 28 -13 48t-34 35t-47 25.5t-51 19.5q-35 12 -63.5 26.5t-48.5 32.5t-31 41.5t-11 54.5q0 52 20 90t54.5 62.5t80.5 36t98 11.5q54 0 102 -11t79 -27l-37 -77q-13 14 -32.5 23.5
t-41.5 15t-45 8t-43 2.5q-73 0 -116 -28.5t-43 -86.5z" />
    <glyph glyph-name="scaron" unicode="&#x161;" horiz-adv-x="442" 
d="M271 545l-90 99l-1 6l9 20l9 3l90 -62l117 62l7 -3l1 -20l-3 -6l-132 -99h-7zM245 419q-57 0 -82 -22t-25 -55q0 -17 13 -35t49 -26l68 -16q32 -8 52.5 -20t32.5 -26.5t16.5 -30.5t4.5 -30q0 -34 -16 -65t-44.5 -54t-68.5 -37t-88 -14q-53 0 -94.5 15.5t-64.5 34.5l32 65
q29 -33 69.5 -48t75.5 -15q27 0 49.5 8t38.5 21.5t25 30.5t9 36q0 16 -11 35t-45 28l-91 24q-50 13 -68.5 40t-18.5 56q0 34 15 62.5t41.5 49.5t63 32.5t79.5 11.5q19 0 40.5 -2.5t41.5 -8t38 -13t31 -17.5l-32 -60q-17 17 -53 31t-83 14z" />
    <glyph glyph-name="Ydieresis" unicode="&#x178;" horiz-adv-x="565" 
d="M273 786q0 20 16 36.5t36 16.5q14 0 23 -11t9 -26q0 -22 -16.5 -37t-34.5 -15q-15 0 -24 10t-9 26zM430 785q0 21 16 37.5t35 16.5q14 0 23.5 -11t9.5 -27q0 -21 -16.5 -36t-35.5 -15q-14 0 -23 10t-9 25zM68 660h89l142 -317l269 317h87l-338 -389l-57 -271h-75l56 267z
" />
    <glyph glyph-name="Zcaron" unicode="&#x17d;" horiz-adv-x="552" 
d="M364 713l-89 99l-2 7l10 20l9 3l90 -62l117 62l6 -3l2 -20l-4 -7l-131 -99h-8zM453 0h-468l15 70l478 520h-353l15 70h438l-15 -70l-478 -520h383z" />
    <glyph glyph-name="zcaron" unicode="&#x17e;" horiz-adv-x="415" 
d="M257 545l-89 99l-2 6l10 20l8 3l91 -62l117 62l6 -3l2 -20l-4 -6l-131 -99h-8zM-4 60l315 341h-233l13 59h314l-13 -58l-317 -343h255l-13 -59h-334z" />
    <glyph glyph-name="florin" unicode="&#x192;" horiz-adv-x="619" 
d="M387 413l-174 -416q-21 -51 -51.5 -97.5t-65.5 -81.5t-73.5 -55.5t-76.5 -20.5q-16 0 -20 3l8 58q6 -3 21 -3q34 0 62 18.5t51 47t41 64t33 70.5l173 413h-67l8 37l79 10l38 90q25 61 53.5 99t57.5 59.5t58 29t56 7.5q5 0 16 -0.5t24 -2t26.5 -5t22.5 -9.5l-43 -63
q-8 11 -28 19.5t-49 8.5q-19 0 -33.5 -5.5t-29 -23.5t-31 -51t-39.5 -87l-28 -66h107l-10 -47h-116z" />
    <glyph glyph-name="schwa" unicode="&#x259;" horiz-adv-x="516" 
d="M170 -12q-75 0 -114 34.5t-39 97.5q0 29 9 57.5t18 40.5h339q6 27 6 57t-7.5 56.5t-23 46.5t-39.5 32t-58 12q-24 0 -48 -5.5t-46.5 -14t-43 -18.5t-36.5 -20v57q15 8 36 17.5t46 17.5t53.5 13.5t58.5 5.5q47 0 81.5 -15.5t57.5 -41.5t34.5 -61t11.5 -74
q0 -56 -21 -109.5t-60 -94.5t-93.5 -66t-121.5 -25zM185 44q69 0 113.5 34.5t67.5 86.5h-276q-2 -5 -5 -11.5t-3 -24.5q0 -42 30 -63.5t73 -21.5z" />
    <glyph glyph-name="circumflex" unicode="&#x2c6;" horiz-adv-x="234" 
d="M265 673l88 -99l2 -7l-10 -19l-8 -3l-91 61l-117 -61l-6 3l-2 19l4 7l132 99h8z" />
    <glyph glyph-name="caron" unicode="&#x2c7;" horiz-adv-x="234" 
d="M229 545l-89 99l-2 6l10 20l8 3l91 -62l117 62l6 -3l2 -20l-4 -6l-131 -99h-8z" />
    <glyph glyph-name="dotaccent" unicode="&#x2d9;" horiz-adv-x="833" 
 />
    <glyph glyph-name="ring" unicode="&#x2da;" horiz-adv-x="164" 
d="M227 683q34 0 51 -19.5t17 -43.5q0 -15 -7 -29.5t-19.5 -26.5t-31 -19t-40.5 -7q-36 0 -52.5 19t-16.5 42q0 15 7.5 30t20.5 27t31 19.5t40 7.5zM202 562q22 0 38 17.5t16 37.5q0 16 -9 29t-26 13q-25 0 -40 -18.5t-15 -37.5q0 -16 9.5 -28.5t26.5 -12.5z" />
    <glyph glyph-name="tilde" unicode="&#x2dc;" horiz-adv-x="311" 
d="M452 663q-12 -28 -37.5 -52.5t-66.5 -24.5q-40 0 -80 7t-72 7q-25 0 -36.5 -6.5t-24.5 -18.5l-11 8q7 13 16.5 27t22.5 24.5t30 17.5t38 7q25 0 43 -2t33.5 -5t30 -5t33.5 -2q17 0 35.5 4t35.5 22z" />
    <glyph glyph-name="uni03BC" unicode="&#x3bc;" horiz-adv-x="551" 
d="M191 460l-65 -304q-4 -19 -4 -38q0 -40 21 -55.5t56 -15.5q51 0 101 30t81 88l62 295h70l-97 -460h-55l10 86h-4q-22 -42 -73 -70t-118 -28q-32 0 -59 8t-44 27l-6 -13q-17 -38 -38.5 -75t-47.5 -75l-58 29q25 34 45.5 64.5t37 61.5t28.5 63t20 69l67 313h70z" />
    <glyph glyph-name="endash" unicode="&#x2013;" horiz-adv-x="562" 
d="M486 265l-11 -52h-414l11 52h414z" />
    <glyph glyph-name="emdash" unicode="&#x2014;" horiz-adv-x="790" 
d="M714 265l-11 -52h-642l11 52h642z" />
    <glyph glyph-name="quoteleft" unicode="&#x2018;" horiz-adv-x="223" 
d="M258 715l-55 -73h25l-19 -90h-79l22 105l90 77z" />
    <glyph glyph-name="quoteright" unicode="&#x2019;" horiz-adv-x="205" 
d="M122 571l55 73h-25l19 90h79l-23 -105l-89 -77z" />
    <glyph glyph-name="quotesinglbase" unicode="&#x201a;" horiz-adv-x="240" 
d="M-6 -78l55 73h-25l19 90h79l-23 -105l-89 -77z" />
    <glyph glyph-name="quotedblleft" unicode="&#x201c;" horiz-adv-x="373" 
d="M258 715l-55 -73h25l-19 -90h-79l22 105l90 77zM408 715l-55 -73h25l-19 -90h-79l22 105l90 77z" />
    <glyph glyph-name="quotedblright" unicode="&#x201d;" horiz-adv-x="355" 
d="M272 571l55 73h-25l19 90h79l-23 -105l-89 -77zM122 571l55 73h-25l19 90h79l-23 -105l-89 -77z" />
    <glyph glyph-name="quotedblbase" unicode="&#x201e;" horiz-adv-x="401" 
d="M-6 -78l55 73h-25l19 90h79l-23 -105l-89 -77zM155 -78l55 73h-25l19 90h79l-23 -105l-89 -77z" />
    <glyph glyph-name="dagger" unicode="&#x2020;" horiz-adv-x="469" 
d="M154 109l82 325l-167 -12l16 73l161 -12l32 209h90l-56 -209l167 12l-16 -73l-161 12l-58 -325h-90z" />
    <glyph glyph-name="daggerdbl" unicode="&#x2021;" horiz-adv-x="505" 
d="M134 -71l56 209h-9l-157 -13l16 74l151 -13h10l53 248h-10l-157 -12l16 73l151 -12h10l33 209h90l-57 -209h9l158 12l-16 -73l-152 12h-9l-53 -248h9l158 13l-16 -74l-152 13h-9l-33 -209h-90z" />
    <glyph glyph-name="bullet" unicode="&#x2022;" horiz-adv-x="331" 
d="M89 231q0 15 7 30t19 26t27 18t31 7q23 0 39 -17.5t16 -41.5q0 -16 -7.5 -30t-19.5 -24.5t-27 -16.5t-30 -6q-25 0 -40 16t-15 39z" />
    <glyph glyph-name="ellipsis" unicode="&#x2026;" horiz-adv-x="610" 
d="M22 27q0 21 18 38.5t40 17.5q17 0 27.5 -12t10.5 -29q0 -11 -5.5 -20.5t-13.5 -16.5t-18.5 -11.5t-20.5 -4.5q-17 0 -27.5 11t-10.5 27zM211 27q0 21 18.5 38.5t39.5 17.5q17 0 27.5 -12t10.5 -29q0 -11 -5.5 -20.5t-13.5 -16.5t-18.5 -11.5t-20.5 -4.5q-17 0 -27.5 11
t-10.5 27zM400 27q0 21 18.5 38.5t39.5 17.5q17 0 27.5 -12t10.5 -29q0 -11 -5.5 -20.5t-13.5 -16.5t-18.5 -11.5t-20.5 -4.5q-17 0 -27.5 11t-10.5 27z" />
    <glyph glyph-name="perthousand" unicode="&#x2030;" horiz-adv-x="1182" 
d="M273 665q28 0 49.5 -11t36 -30t21.5 -45t7 -55q0 -42 -14.5 -83t-40.5 -74t-62.5 -53t-79.5 -20q-28 0 -49 10.5t-34.5 29.5t-20 43.5t-6.5 53.5q0 46 14.5 88t40.5 74.5t61 52t77 19.5zM201 339q34 0 58.5 17t40.5 43.5t24 59.5t8 65q0 43 -17 69.5t-53 26.5
q-37 0 -61.5 -19t-38.5 -47t-20 -61t-6 -61q0 -93 65 -93zM150 -24h-65l615 715h65zM657 364q28 0 49.5 -11t36 -30t21.5 -45t7 -55q0 -42 -14.5 -83t-40.5 -74t-62.5 -53t-79.5 -20q-28 0 -49 10.5t-34.5 29.5t-20 43.5t-6.5 53.5q0 46 14.5 88t40.5 74.5t61 52t77 19.5z
M585 38q34 0 58.5 17t40.5 43.5t24 59.5t8 65q0 43 -17 69.5t-53 26.5q-37 0 -61.5 -19t-38.5 -47t-20 -61t-6 -61q0 -93 65 -93zM1017 364q28 0 49.5 -11t36 -30t21.5 -45t7 -55q0 -42 -14.5 -83t-40.5 -74t-62.5 -53t-79.5 -20q-28 0 -49 10.5t-34.5 29.5t-20 43.5
t-6.5 53.5q0 46 14.5 88t40.5 74.5t61 52t77 19.5zM945 38q34 0 58.5 17t40.5 43.5t24 59.5t8 65q0 43 -17 69.5t-53 26.5q-37 0 -61.5 -19t-38.5 -47t-20 -61t-6 -61q0 -93 65 -93z" />
    <glyph glyph-name="guilsinglleft" unicode="&#x2039;" horiz-adv-x="319" 
d="M112 238l106 -177h-80l-95 177l1 5l172 177h79l-182 -177z" />
    <glyph glyph-name="guilsinglright" unicode="&#x203a;" horiz-adv-x="319" 
d="M193 243l-107 177h79l97 -177l-1 -5l-171 -177h-80l182 177z" />
    <glyph glyph-name="fraction" unicode="&#x2044;" horiz-adv-x="520" 
d="M-2 -24h-65l615 715h65z" />
    <glyph glyph-name="zerosuperior" unicode="&#x2070;" horiz-adv-x="409" 
d="M287 665q28 0 49.5 -11t36 -30t21.5 -45t7 -55q0 -42 -14.5 -83t-40.5 -74t-62.5 -53t-79.5 -20q-28 0 -49 10.5t-34.5 29.5t-20 43.5t-6.5 53.5q0 46 14.5 88t40.5 74.5t61 52t77 19.5zM215 339q34 0 58.5 17t40.5 43.5t24 59.5t8 65q0 43 -17 69.5t-53 26.5
q-37 0 -61.5 -19t-38.5 -47t-20 -61t-6 -61q0 -93 65 -93z" />
    <glyph glyph-name="foursuperior" unicode="&#x2074;" horiz-adv-x="330" 
d="M301 410h-36l-24 -111h-45l24 111h-150l9 42l192 213h48l-45 -213h36zM229 452l33 154l-132 -154h99z" />
    <glyph glyph-name="zeroinferior" unicode="&#x2080;" horiz-adv-x="423" 
d="M232 366q28 0 49.5 -11t36 -30t21.5 -45t7 -55q0 -42 -14.5 -83t-40.5 -74t-62.5 -53t-79.5 -20q-28 0 -49 10.5t-34.5 29.5t-20 43.5t-6.5 53.5q0 46 14.5 88t40.5 74.5t61 52t77 19.5zM160 40q34 0 58.5 17t40.5 43.5t24 59.5t8 65q0 43 -17 69.5t-53 26.5
q-37 0 -61.5 -19t-38.5 -47t-20 -61t-6 -61q0 -93 65 -93z" />
    <glyph glyph-name="oneinferior" unicode="&#x2081;" horiz-adv-x="256" 
d="M111 0h-54l61 286l-63 -28l-4 42l138 66z" />
    <glyph glyph-name="twoinferior" unicode="&#x2082;" horiz-adv-x="355" 
d="M80 317q28 21 59 35t60 14q45 0 68 -21.5t23 -56.5q0 -37 -19.5 -68t-51 -59.5t-71.5 -57t-80 -61.5h175l-9 -42h-236l9 42q32 32 72 61t75 57.5t59 58t24 61.5q0 16 -9.5 31t-38.5 15q-26 0 -55.5 -15.5t-51.5 -37.5z" />
    <glyph glyph-name="threeinferior" unicode="&#x2083;" horiz-adv-x="358" 
d="M89 336q23 13 46.5 21.5t47.5 8.5q46 0 70.5 -19t24.5 -55q0 -33 -23 -55t-52 -35q28 -9 43.5 -27t15.5 -46q0 -24 -10 -47.5t-31 -43t-52.5 -31.5t-74.5 -12q-35 0 -54.5 10t-38.5 28l21 40q17 -17 32.5 -27.5t45.5 -10.5q61 0 87 28t26 69q0 23 -18 36.5t-64 13.5h-12
l7 34h15q45 0 66 21t21 54q0 16 -10.5 25.5t-39.5 9.5q-27 0 -47.5 -8.5t-38.5 -20.5z" />
    <glyph glyph-name="fourinferior" unicode="&#x2084;" horiz-adv-x="332" 
d="M238 111h-36l-24 -111h-45l24 111h-150l9 42l192 213h48l-45 -213h36zM166 153l33 154l-132 -154h99z" />
    <glyph glyph-name="Euro" unicode="&#x20ac;" horiz-adv-x="619" 
d="M145 412q20 54 51.5 100t73.5 80t93 53.5t111 19.5q45 0 89.5 -11.5t72.5 -31.5l-36 -72q-23 21 -59 35t-87 14q-53 0 -92 -16t-67 -42t-46 -59.5t-29 -69.5h267l-11 -52h-269q-3 -14 -4.5 -27.5t-2.5 -25.5h265l-11 -52h-257v-17q0 -90 35 -137t104 -47q54 0 102.5 18
t81.5 44l6 -67q-41 -24 -93 -42.5t-114 -18.5q-54 0 -92.5 19.5t-63.5 53.5t-37 79t-12 96v19h-79l11 52h73q3 28 10 53h-72l11 52h77z" />
    <glyph glyph-name="trademark" unicode="&#x2122;" horiz-adv-x="686" 
d="M414 579l-45 -210h-38l60 284h48l47 -242l148 242h47l-60 -284h-39l44 209l-128 -209h-45zM346 614h-84l-52 -245h-47l52 245h-84l8 39h215z" />
    <glyph glyph-name="onethird" unicode="&#x2153;" horiz-adv-x="711" 
d="M466 336q23 13 46.5 21.5t47.5 8.5q46 0 70.5 -19t24.5 -55q0 -33 -23 -55t-52 -35q28 -9 43.5 -27t15.5 -46q0 -24 -10 -47.5t-31 -43t-52.5 -31.5t-74.5 -12q-35 0 -54.5 10t-38.5 28l21 40q17 -17 32.5 -27.5t45.5 -10.5q61 0 87 28t26 69q0 23 -18 36.5t-64 13.5h-12
l7 34h15q45 0 66 21t21 54q0 16 -10.5 25.5t-39.5 9.5q-27 0 -47.5 -8.5t-38.5 -20.5zM64 -24h-65l615 715h65zM167 299h-54l61 286l-63 -28l-4 42l138 66z" />
    <glyph glyph-name="twothirds" unicode="&#x2154;" horiz-adv-x="757" 
d="M131 616q28 21 59 35t60 14q45 0 68 -21.5t23 -56.5q0 -37 -19.5 -68t-51 -59.5t-71.5 -57t-80 -61.5h175l-9 -42h-236l9 42q32 32 72 61t75 57.5t59 58t24 61.5q0 16 -9.5 31t-38.5 15q-26 0 -55.5 -15.5t-51.5 -37.5zM131 -24h-65l615 715h65zM508 336q23 13 46.5 21.5
t47.5 8.5q46 0 70.5 -19t24.5 -55q0 -33 -23 -55t-52 -35q28 -9 43.5 -27t15.5 -46q0 -24 -10 -47.5t-31 -43t-52.5 -31.5t-74.5 -12q-35 0 -54.5 10t-38.5 28l21 40q17 -17 32.5 -27.5t45.5 -10.5q61 0 87 28t26 69q0 23 -18 36.5t-64 13.5h-12l7 34h15q45 0 66 21t21 54
q0 16 -10.5 25.5t-39.5 9.5q-27 0 -47.5 -8.5t-38.5 -20.5z" />
    <glyph glyph-name="minus" unicode="&#x2212;" horiz-adv-x="567" 
d="M488 265l-11 -52h-414l11 52h414z" />
    <glyph glyph-name="uni2215" unicode="&#x2215;" horiz-adv-x="523" 
d="M0 -24h-65l615 715h65z" />
    </font>
</defs>
</svg>
